<svg width="48" height="48" viewBox="0 0 48 48" fill="none" xmlns="http://www.w3.org/2000/svg">
<rect width="48" height="48" rx="6" fill="#FBE4AB"/>
<path d="M30 28.0001C29.3329 27.9999 28.6726 28.1335 28.0581 28.3931C27.4436 28.6527 26.8874 29.0329 26.4225 29.5113L20.66 25.8076C21.1133 24.6452 21.1133 23.355 20.66 22.1926L26.4225 18.4888C27.2881 19.3755 28.452 19.9092 29.6887 19.9864C30.9254 20.0636 32.1467 19.6789 33.1158 18.9068C34.085 18.1347 34.7329 17.0303 34.934 15.8076C35.1351 14.5849 34.8751 13.3311 34.2043 12.2893C33.5335 11.2475 32.4997 10.4919 31.3035 10.1689C30.1072 9.84596 28.8336 9.97871 27.7297 10.5414C26.6257 11.1041 25.77 12.0567 25.3285 13.2145C24.887 14.3722 24.8911 15.6527 25.34 16.8076L19.5775 20.5113C18.8836 19.7989 17.993 19.3097 17.0195 19.106C16.0461 18.9024 15.0341 18.9937 14.1128 19.3682C13.1915 19.7428 12.4028 20.3835 11.8476 21.2086C11.2924 22.0337 10.9958 23.0056 10.9958 24.0001C10.9958 24.9946 11.2924 25.9665 11.8476 26.7916C12.4028 27.6167 13.1915 28.2574 14.1128 28.632C15.0341 29.0065 16.0461 29.0978 17.0195 28.8942C17.993 28.6905 18.8836 28.2013 19.5775 27.4888L25.34 31.1926C24.954 32.1883 24.8968 33.2814 25.177 34.3118C25.4571 35.3423 26.0599 36.256 26.8969 36.9192C27.7339 37.5823 28.7612 37.9601 29.8285 37.9971C30.8957 38.0341 31.9468 37.7285 32.8277 37.125C33.7087 36.5214 34.3733 35.6517 34.7242 34.6431C35.0751 33.6345 35.0939 32.5401 34.7778 31.5201C34.4617 30.5 33.8273 29.608 32.9676 28.9746C32.1078 28.3412 31.0679 27.9997 30 28.0001ZM30 12.0001C30.5933 12.0001 31.1734 12.176 31.6667 12.5057C32.1601 12.8353 32.5446 13.3039 32.7716 13.852C32.9987 14.4002 33.0581 15.0034 32.9424 15.5854C32.8266 16.1673 32.5409 16.7019 32.1213 17.1214C31.7018 17.541 31.1672 17.8267 30.5853 17.9425C30.0033 18.0582 29.4001 17.9988 28.8519 17.7717C28.3038 17.5447 27.8352 17.1602 27.5056 16.6668C27.1759 16.1735 27 15.5934 27 15.0001C27 14.2044 27.3161 13.4414 27.8787 12.8788C28.4413 12.3162 29.2043 12.0001 30 12.0001ZM16 27.0001C15.4067 27.0001 14.8266 26.8242 14.3333 26.4945C13.8399 26.1649 13.4554 25.6963 13.2284 25.1481C13.0013 24.6 12.9419 23.9968 13.0576 23.4148C13.1734 22.8329 13.4591 22.2983 13.8787 21.8788C14.2982 21.4592 14.8328 21.1735 15.4147 21.0577C15.9967 20.942 16.5999 21.0014 17.148 21.2285C17.6962 21.4555 18.1648 21.84 18.4944 22.3334C18.824 22.8267 19 23.4068 19 24.0001C19 24.7957 18.6839 25.5588 18.1213 26.1214C17.5587 26.684 16.7956 27.0001 16 27.0001ZM30 36.0001C29.4067 36.0001 28.8266 35.8242 28.3333 35.4945C27.8399 35.1649 27.4554 34.6963 27.2284 34.1481C27.0013 33.6 26.9419 32.9968 27.0576 32.4148C27.1734 31.8329 27.4591 31.2983 27.8787 30.8788C28.2982 30.4592 28.8328 30.1735 29.4147 30.0577C29.9967 29.942 30.5999 30.0014 31.148 30.2285C31.6962 30.4555 32.1648 30.84 32.4944 31.3334C32.8241 31.8267 33 32.4068 33 33.0001C33 33.7957 32.6839 34.5588 32.1213 35.1214C31.5587 35.684 30.7956 36.0001 30 36.0001Z" fill="#0D0D0D"/>
</svg>

