<svg width="48" height="48" viewBox="0 0 48 48" fill="none" xmlns="http://www.w3.org/2000/svg">
<rect width="48" height="48" rx="6" fill="#FBE4AB"/>
<path d="M25.5 24C25.5 24.2967 25.412 24.5867 25.2472 24.8334C25.0824 25.0801 24.8481 25.2723 24.574 25.3859C24.2999 25.4994 23.9983 25.5291 23.7074 25.4712C23.4164 25.4133 23.1491 25.2705 22.9393 25.0607C22.7296 24.8509 22.5867 24.5836 22.5288 24.2927C22.4709 24.0017 22.5006 23.7001 22.6142 23.426C22.7277 23.1519 22.92 22.9177 23.1666 22.7528C23.4133 22.588 23.7033 22.5 24 22.5C24.3978 22.5 24.7794 22.6581 25.0607 22.9394C25.342 23.2207 25.5 23.6022 25.5 24ZM18.5 22.5C18.2033 22.5 17.9133 22.588 17.6666 22.7528C17.42 22.9177 17.2277 23.1519 17.1142 23.426C17.0006 23.7001 16.9709 24.0017 17.0288 24.2927C17.0867 24.5836 17.2296 24.8509 17.4393 25.0607C17.6491 25.2705 17.9164 25.4133 18.2074 25.4712C18.4983 25.5291 18.7999 25.4994 19.074 25.3859C19.3481 25.2723 19.5824 25.0801 19.7472 24.8334C19.912 24.5867 20 24.2967 20 24C20 23.6022 19.842 23.2207 19.5607 22.9394C19.2794 22.6581 18.8978 22.5 18.5 22.5ZM29.5 22.5C29.2033 22.5 28.9133 22.588 28.6666 22.7528C28.42 22.9177 28.2277 23.1519 28.1142 23.426C28.0007 23.7001 27.9709 24.0017 28.0288 24.2927C28.0867 24.5836 28.2296 24.8509 28.4393 25.0607C28.6491 25.2705 28.9164 25.4133 29.2074 25.4712C29.4983 25.5291 29.7999 25.4994 30.074 25.3859C30.3481 25.2723 30.5824 25.0801 30.7472 24.8334C30.912 24.5867 31 24.2967 31 24C31 23.6022 30.842 23.2207 30.5607 22.9394C30.2794 22.6581 29.8978 22.5 29.5 22.5ZM37 24C37.0005 26.2445 36.4199 28.4508 35.3147 30.4042C34.2095 32.3577 32.6174 33.9917 30.6934 35.1473C28.7693 36.3029 26.5788 36.9407 24.3352 36.9986C22.0915 37.0564 19.8711 36.5324 17.89 35.4775L13.6337 36.8963C13.2814 37.0138 12.9032 37.0309 12.5417 36.9455C12.1801 36.8602 11.8495 36.6759 11.5868 36.4132C11.3241 36.1506 11.1398 35.8199 11.0545 35.4584C10.9692 35.0968 10.9862 34.7187 11.1037 34.3663L12.5225 30.11C11.5952 28.3666 11.0772 26.4348 11.008 24.4613C10.9387 22.4877 11.32 20.5244 12.1228 18.7202C12.9257 16.916 14.129 15.3185 15.6414 14.0488C17.1538 12.7791 18.9356 11.8706 20.8516 11.3924C22.7675 10.9141 24.7672 10.8786 26.699 11.2886C28.6307 11.6986 30.4436 12.5433 32.0001 13.7585C33.5566 14.9737 34.8158 16.5276 35.6822 18.3022C36.5485 20.0767 36.9992 22.0253 37 24ZM35 24C34.9995 22.3127 34.6109 20.6481 33.8641 19.135C33.1174 17.6219 32.0325 16.3008 30.6935 15.2741C29.3545 14.2473 27.7973 13.5424 26.1422 13.2138C24.4872 12.8852 22.7787 12.9417 21.149 13.379C19.5194 13.8164 18.0121 14.6227 16.7439 15.7358C15.4758 16.8488 14.4806 18.2387 13.8356 19.7979C13.1905 21.357 12.9128 23.0437 13.0239 24.7274C13.135 26.4111 13.6319 28.0466 14.4762 29.5075C14.5471 29.6302 14.5911 29.7665 14.6053 29.9074C14.6196 30.0484 14.6037 30.1907 14.5587 30.325L13 35L17.675 33.4413C17.7768 33.4066 17.8837 33.3888 17.9912 33.3888C18.1669 33.3891 18.3393 33.4357 18.4912 33.5238C20.1635 34.4913 22.0611 35.0013 23.9931 35.0026C25.925 35.0038 27.8232 34.4961 29.4967 33.5307C31.1702 32.5653 32.5599 31.1762 33.526 29.5031C34.492 27.83 35.0004 25.932 35 24Z" fill="#0D0D0D"/>
</svg>

