<svg width="48" height="48" viewBox="0 0 48 48" fill="none" xmlns="http://www.w3.org/2000/svg">
<rect width="48" height="48" rx="6" fill="#FBE4AB"/>
<path d="M18 30.5001C18 30.7968 17.912 31.0868 17.7472 31.3335C17.5824 31.5801 17.3481 31.7724 17.074 31.8859C16.7999 31.9994 16.4983 32.0292 16.2074 31.9713C15.9164 31.9134 15.6491 31.7705 15.4393 31.5608C15.2295 31.351 15.0867 31.0837 15.0288 30.7927C14.9709 30.5018 15.0006 30.2002 15.1142 29.9261C15.2277 29.652 15.42 29.4177 15.6666 29.2529C15.9133 29.0881 16.2033 29.0001 16.5 29.0001C16.8978 29.0001 17.2793 29.1581 17.5606 29.4394C17.842 29.7207 18 30.1023 18 30.5001ZM37 27.5238V34.0001C37 34.5305 36.7893 35.0392 36.4142 35.4143C36.0391 35.7894 35.5304 36.0001 35 36.0001H16.5C16.1673 36.0003 15.8353 35.9719 15.5075 35.9151C14.0775 35.6542 12.809 34.8379 11.9791 33.6445C11.1492 32.4511 10.8255 30.9777 11.0787 29.5463L14.2037 11.6551C14.2482 11.3966 14.3432 11.1494 14.4834 10.9277C14.6236 10.706 14.8061 10.5141 15.0206 10.3631C15.2351 10.2122 15.4774 10.105 15.7334 10.0479C15.9894 9.99071 16.2541 9.98468 16.5125 10.0301L23.355 11.2501C23.8756 11.3439 24.3379 11.6402 24.6406 12.0741C24.9432 12.508 25.0617 13.0441 24.97 13.5651L23.46 22.1901L31.9362 19.1251C32.4331 18.9456 32.9808 18.97 33.4597 19.193C33.9387 19.416 34.3099 19.8193 34.4925 20.3151L36.875 26.8363C36.9515 27.0578 36.9937 27.2896 37 27.5238ZM19.875 31.1088L23 13.2176L16.1825 12.0001L13.0575 29.8876C12.8943 30.7974 13.0977 31.7348 13.6232 32.4953C14.1488 33.2557 14.9537 33.7773 15.8625 33.9464C16.3073 34.0261 16.7636 34.0167 17.2048 33.9186C17.646 33.8206 18.0633 33.6358 18.4325 33.3751C18.8111 33.1118 19.1336 32.7758 19.3812 32.3868C19.6289 31.9977 19.7967 31.5633 19.875 31.1088ZM21.5975 32.3751L35 27.5138L32.615 21.0001L23.0625 24.4626L21.84 31.4526C21.7856 31.7665 21.7045 32.0751 21.5975 32.3751ZM35 29.6401L22.9675 34.0001H35V29.6401Z" fill="#0D0D0D"/>
</svg>

