<svg width="1440" height="48" viewBox="0 0 1440 48" fill="none" xmlns="http://www.w3.org/2000/svg">
<path opacity="0.8" d="M48.9999 2C36.8496 2 26.9999 11.8497 26.9999 24C26.9999 36.1503 36.8496 46 48.9999 46C59.901 46 68.9501 38.0716 70.6958 27.6667H70.5379C68.9097 33.9925 63.1673 38.6667 56.3333 38.6667C48.2331 38.6667 41.6666 32.1002 41.6666 24C41.6666 15.8998 48.2331 9.33333 56.3333 9.33333C63.1673 9.33333 68.9097 14.0075 70.5379 20.3333H70.6958C68.9501 9.92838 59.901 2 48.9999 2Z" fill="#828D8B"/>
<path d="M26.9999 24C26.9999 11.8497 36.8497 2 48.9999 2C59.9009 2 68.9501 9.92838 70.6958 20.3333H55.8712C54.243 14.0075 48.5007 9.33333 41.6666 9.33333C33.5664 9.33333 26.9999 15.8998 26.9999 24Z" fill="#828D8B"/>
<path d="M26.9999 24C26.9999 36.1503 36.8497 46 48.9999 46C59.9009 46 68.9501 38.0716 70.6958 27.6667H55.8712C54.243 33.9925 48.5007 38.6667 41.6666 38.6667C33.5664 38.6667 26.9999 32.1002 26.9999 24Z" fill="#828D8B"/>
<path d="M102.439 20.5071C101.812 15.9829 98.3323 13.3579 93.8181 13.3579C88.4985 13.3579 84.4914 17.2358 84.4914 23.8181C84.4914 30.3906 88.4488 34.2784 93.8181 34.2784C98.6604 34.2784 101.872 31.1463 102.439 27.2585L98.7201 27.2386C98.2528 29.625 96.3039 30.9673 93.8678 30.9673C90.5667 30.9673 88.2002 28.4914 88.2002 23.8181C88.2002 19.2244 90.5468 16.669 93.8778 16.669C96.3536 16.669 98.2925 18.071 98.7201 20.5071H102.439Z" fill="#828D8B"/>
<path d="M110.053 34.3082C112.449 34.3082 113.881 33.1846 114.537 31.9019H114.657V34H118.117V23.7784C118.117 19.7414 114.826 18.5284 111.912 18.5284C108.701 18.5284 106.235 19.9602 105.439 22.7443L108.8 23.2215C109.158 22.1775 110.172 21.2826 111.932 21.2826C113.603 21.2826 114.517 22.1377 114.517 23.6392V23.6988C114.517 24.7329 113.434 24.7826 110.739 25.071C107.776 25.3892 104.942 26.2741 104.942 29.7144C104.942 32.7173 107.139 34.3082 110.053 34.3082ZM110.987 31.6633C109.486 31.6633 108.412 30.9772 108.412 29.6548C108.412 28.2727 109.615 27.696 111.226 27.4673C112.171 27.338 114.06 27.0994 114.527 26.7215V28.5213C114.527 30.2215 113.155 31.6633 110.987 31.6633Z" fill="#828D8B"/>
<path d="M129.362 18.7272H126.35V15.0681H122.75V18.7272H120.583V21.5113H122.75V30.0028C122.73 32.8764 124.818 34.2883 127.523 34.2088C128.547 34.1789 129.253 33.9801 129.641 33.8508L129.034 31.0369C128.835 31.0866 128.428 31.1761 127.98 31.1761C127.076 31.1761 126.35 30.8579 126.35 29.4062V21.5113H129.362V18.7272Z" fill="#828D8B"/>
<path d="M136.768 34.3082C139.164 34.3082 140.596 33.1846 141.252 31.9019H141.371V34H144.832V23.7784C144.832 19.7414 141.54 18.5284 138.627 18.5284C135.415 18.5284 132.949 19.9602 132.154 22.7443L135.515 23.2215C135.873 22.1775 136.887 21.2826 138.647 21.2826C140.317 21.2826 141.232 22.1377 141.232 23.6392V23.6988C141.232 24.7329 140.148 24.7826 137.454 25.071C134.491 25.3892 131.657 26.2741 131.657 29.7144C131.657 32.7173 133.854 34.3082 136.768 34.3082ZM137.702 31.6633C136.201 31.6633 135.127 30.9772 135.127 29.6548C135.127 28.2727 136.33 27.696 137.941 27.4673C138.886 27.338 140.775 27.0994 141.242 26.7215V28.5213C141.242 30.2215 139.87 31.6633 137.702 31.6633Z" fill="#828D8B"/>
<path d="M152.05 13.6363H148.451V34H152.05V13.6363Z" fill="#828D8B"/>
<path d="M162.414 34.2983C166.888 34.2983 169.732 31.1463 169.732 26.4233C169.732 21.6903 166.888 18.5284 162.414 18.5284C157.939 18.5284 155.095 21.6903 155.095 26.4233C155.095 31.1463 157.939 34.2983 162.414 34.2983ZM162.433 31.4147C159.958 31.4147 158.745 29.2073 158.745 26.4133C158.745 23.6193 159.958 21.3821 162.433 21.3821C164.87 21.3821 166.083 23.6193 166.083 26.4133C166.083 29.2073 164.87 31.4147 162.433 31.4147Z" fill="#828D8B"/>
<path d="M179.429 40.0454C183.555 40.0454 186.598 38.1562 186.598 34.2485V18.7272H183.048V21.2528H182.849C182.302 20.1491 181.159 18.5284 178.464 18.5284C174.935 18.5284 172.16 21.2926 172.16 26.3139C172.16 31.2954 174.935 33.7812 178.454 33.7812C181.069 33.7812 182.293 32.3792 182.849 31.2556H183.028V34.1491C183.028 36.3963 181.537 37.321 179.489 37.321C177.321 37.321 176.366 36.2968 175.929 35.4019L172.687 36.1875C173.344 38.3252 175.541 40.0454 179.429 40.0454ZM179.459 30.9573C177.082 30.9573 175.829 29.1079 175.829 26.294C175.829 23.5198 177.062 21.4815 179.459 21.4815C181.775 21.4815 183.048 23.4005 183.048 26.294C183.048 29.2073 181.756 30.9573 179.459 30.9573Z" fill="#828D8B"/>
<circle cx="271" cy="24.25" r="20.5" stroke="#828D8B" stroke-width="3"/>
<path d="M279.132 32.3819C274.992 36.5213 270.303 39.2235 266.126 40.2975C261.912 41.3811 258.516 40.7573 256.504 38.7459C254.493 36.7345 253.869 33.3379 254.953 29.1238C256.027 24.9474 258.729 20.2579 262.868 16.1185C267.008 11.9791 271.697 9.27686 275.873 8.20294C280.088 7.11932 283.484 7.74311 285.496 9.75451C287.507 11.7659 288.131 15.1625 287.047 19.3766C285.973 23.553 283.271 28.2425 279.132 32.3819Z" stroke="#828D8B" stroke-width="3"/>
<path d="M279.132 16.1185C283.271 20.2579 285.973 24.9474 287.047 29.1238C288.131 33.3378 287.507 36.7345 285.495 38.7459C283.484 40.7573 280.087 41.3811 275.873 40.2975C271.697 39.2235 267.007 36.5213 262.868 32.3819C258.729 28.2425 256.026 23.553 254.953 19.3766C253.869 15.1625 254.493 11.7659 256.504 9.7545C258.515 7.7431 261.912 7.11931 266.126 8.20293C270.303 9.27685 274.992 11.9791 279.132 16.1185Z" stroke="#828D8B" stroke-width="3"/>
<path d="M311.85 34.2401C316.56 34.2401 319.74 31.7801 319.74 27.8501C319.74 19.5401 308.7 23.0801 308.7 18.7001C308.7 17.4701 309.81 16.6301 311.58 16.6301C313.59 16.6301 314.85 17.7101 315 19.3601H319.29C319.17 15.3701 316.11 12.7601 311.58 12.7601C307.32 12.7601 304.32 15.2201 304.32 18.7001C304.32 26.9501 315.21 23.8001 315.21 27.9101C315.21 29.5001 313.86 30.3401 311.85 30.3401C309.63 30.3401 308.22 28.9901 308.04 26.8601H303.72C303.9 31.3301 307.08 34.2401 311.85 34.2401Z" fill="#828D8B"/>
<path d="M320.76 40.1201H324.93V32.6501C325.74 33.6701 327.21 34.2401 328.92 34.2401C333.27 34.2401 336.21 31.1501 336.21 26.4401C336.21 21.7301 333.51 18.6401 329.28 18.6401C327.33 18.6401 325.83 19.3601 324.93 20.5301V18.8801H320.76V40.1201ZM328.41 30.6401C326.16 30.6401 324.69 28.9601 324.69 26.4401C324.69 23.8901 326.16 22.2101 328.41 22.2101C330.6 22.2101 332.1 23.8901 332.1 26.4401C332.1 28.9601 330.6 30.6401 328.41 30.6401Z" fill="#828D8B"/>
<path d="M337.219 34.0001H341.389V25.7201C341.389 23.7701 342.679 22.3601 344.509 22.3601C346.249 22.3601 347.449 23.6801 347.449 25.5101V34.0001H351.619V24.5801C351.619 21.1001 349.399 18.6401 346.009 18.6401C343.909 18.6401 342.259 19.5101 341.389 20.9801V12.3101H337.219V34.0001Z" fill="#828D8B"/>
<path d="M363.285 28.8701C362.954 30.1601 361.845 30.8201 360.165 30.8201C358.065 30.8201 356.715 29.5001 356.415 27.3701H367.274C367.304 27.0401 367.335 26.5901 367.335 26.0201C367.335 22.5701 365.205 18.6401 359.865 18.6401C354.735 18.6401 352.395 22.5701 352.395 26.4101C352.395 30.2201 355.035 34.2401 360.165 34.2401C363.885 34.2401 366.764 32.1401 367.365 28.8701H363.285ZM359.865 21.7001C361.875 21.7001 363.045 23.0501 363.165 24.7301H356.475C356.835 22.6301 357.975 21.7001 359.865 21.7001Z" fill="#828D8B"/>
<path d="M378.271 22.3601V18.8801H376.119C374.289 18.8801 373.149 19.5101 372.339 21.4001V18.8801H368.139V34.0001H372.339V26.6501C372.339 24.0701 373.269 22.3601 375.339 22.3601H378.271Z" fill="#828D8B"/>
<path d="M392.671 18.8801H388.471V27.1601C388.471 29.0801 387.181 30.5201 385.351 30.5201C383.641 30.5201 382.441 29.2001 382.441 27.3701V18.8801H378.271V28.3001C378.271 31.7501 380.491 34.2401 383.881 34.2401C385.951 34.2401 387.631 33.3401 388.471 31.9001V34.0001H392.671V18.8801Z" fill="#828D8B"/>
<path d="M394.471 34.0001H398.641V12.3101H394.471V34.0001Z" fill="#828D8B"/>
<path d="M410.546 28.8701C410.216 30.1601 409.106 30.8201 407.426 30.8201C405.326 30.8201 403.976 29.5001 403.676 27.3701H414.536C414.566 27.0401 414.596 26.5901 414.596 26.0201C414.596 22.5701 412.466 18.6401 407.126 18.6401C401.996 18.6401 399.656 22.5701 399.656 26.4101C399.656 30.2201 402.296 34.2401 407.426 34.2401C411.146 34.2401 414.026 32.1401 414.626 28.8701H410.546ZM407.126 21.7001C409.136 21.7001 410.306 23.0501 410.426 24.7301H403.736C404.096 22.6301 405.236 21.7001 407.126 21.7001Z" fill="#828D8B"/>
<path d="M488.832 4.48527L493.981 23.6997V2.57496C494.389 2.47969 494.802 2.39579 495.218 2.32361V23.7016L501.009 2.09033C501.426 2.12811 501.84 2.17754 502.25 2.2383L496.413 24.0237L508.016 3.92637C508.394 4.09642 508.767 4.27684 509.133 4.46726L497.486 24.6396L514.113 8.01273C514.413 8.29621 514.705 8.58803 514.988 8.88781L498.359 25.5171L518.534 13.8692C518.724 14.2356 518.904 14.6079 519.074 14.986L498.982 26.5863L520.762 20.7505C520.822 21.1608 520.872 21.5747 520.909 21.992L499.298 27.7827L520.676 27.7827C520.604 28.1993 520.52 28.6119 520.424 29.0202L499.295 29.0202L518.513 34.1697C518.316 34.5476 518.108 34.9191 517.89 35.2837L498.98 30.217L514.774 39.3354C514.475 39.6429 514.167 39.9417 513.851 40.2313L498.363 31.2895L510.082 43.0088C509.711 43.2253 509.334 43.4314 508.95 43.6265L497.487 32.1633L504.997 45.1724C504.586 45.2886 504.17 45.3932 503.749 45.4858L496.414 32.7801L499.951 45.9797C499.635 45.9931 499.318 45.9998 499 45.9998C498.891 45.9998 498.783 45.999 498.674 45.9975L495.218 33.0994V45.676C494.802 45.6039 494.389 45.52 493.981 45.4247V33.1014L490.933 44.474C490.545 44.3207 490.161 44.1567 489.784 43.9824L492.785 32.7828L487.152 42.54C486.803 42.3167 486.461 42.0838 486.126 41.8417L491.715 32.1612L483.888 39.9882C483.588 39.7048 483.296 39.413 483.013 39.1132L490.837 31.2887L481.16 36.8761C480.917 36.5412 480.684 36.1991 480.461 35.8504L490.223 30.2144L479.018 33.2168C478.843 32.8394 478.679 32.4561 478.526 32.0674L489.899 29.0202L477.575 29.0202C477.48 28.6119 477.396 28.1993 477.324 27.7827L489.895 27.7827L477.002 24.328C477.001 24.2188 477 24.1094 477 23.9998C477 23.6821 477.007 23.366 477.02 23.0516L490.221 26.5888L477.513 19.252C477.606 18.8314 477.711 18.4153 477.827 18.004L490.841 25.5179L479.373 14.0499C479.568 13.6658 479.774 13.2882 479.991 12.9175L491.715 24.6416L482.77 9.14771C483.059 8.83135 483.358 8.52348 483.666 8.22453L492.786 24.021L487.718 5.1088C488.083 4.89057 488.454 4.68259 488.832 4.48527Z" fill="#828D8B"/>
<path d="M534.848 33.9094H539.636V25.5934H549.184V21.3654H539.636V17.8094H549.8V13.6094H534.848V33.9094Z" fill="#828D8B"/>
<path d="M557.938 21.9814C559.758 21.9814 561.214 23.1014 561.214 26.3214C561.214 29.4854 559.814 30.6894 557.938 30.6894C556.062 30.6894 554.662 29.4854 554.662 26.3214C554.662 23.1014 556.118 21.9814 557.938 21.9814ZM557.938 18.3974C553.766 18.3974 549.958 20.8614 549.958 26.3214C549.958 31.7814 553.766 34.2734 557.938 34.2734C562.11 34.2734 565.918 31.7814 565.918 26.3214C565.918 20.8614 562.11 18.3974 557.938 18.3974Z" fill="#828D8B"/>
<path d="M574.789 18.3974C570.225 18.3974 567.089 21.5054 567.089 26.2934C567.089 31.0814 569.833 34.2734 574.789 34.2734C577.813 34.2734 581.425 32.8454 582.461 28.3654H578.149C577.813 29.7934 576.777 30.6894 575.069 30.6894C573.417 30.6894 571.793 29.5974 571.793 26.3214C571.793 23.1014 573.417 21.9814 575.069 21.9814C576.441 21.9814 577.533 22.5974 577.953 24.3614H582.265C581.369 19.8254 577.925 18.3974 574.789 18.3974Z" fill="#828D8B"/>
<path d="M593.317 24.5014C587.465 24.9494 583.293 26.1534 583.293 29.8494C583.293 32.5934 585.645 34.2734 588.501 34.2734C590.657 34.2734 592.449 33.6854 593.569 32.0894L593.625 33.9094H598.161C597.937 32.9574 597.825 31.1934 597.825 29.5414V27.9734L597.881 24.6974C597.965 20.1334 595.501 18.3694 591.161 18.3694C586.681 18.3694 583.993 20.8894 583.769 23.7174H588.081C588.277 22.2614 589.285 21.5054 590.769 21.5054C592.449 21.5054 593.317 22.1214 593.317 23.9134V24.5014ZM593.429 27.5814C593.429 30.3534 592.029 31.1374 590.181 31.1374C588.977 31.1374 588.053 30.4934 588.053 29.5134C588.053 27.8894 590.209 27.5254 593.429 27.2174V27.5814Z" fill="#828D8B"/>
<path d="M604.872 13.6094H600.252V33.9094H604.872V13.6094Z" fill="#828D8B"/>
<path d="M607.817 13.6094V33.9094H612.605V26.8814H615.629C620.893 26.8814 624.841 25.5654 624.841 20.2174C624.841 14.8974 620.893 13.6094 615.629 13.6094H607.817ZM615.769 17.6414C618.009 17.6414 619.773 18.0894 619.773 20.2174C619.773 22.3454 618.009 22.8494 615.769 22.8494H612.605V17.6414H615.769Z" fill="#828D8B"/>
<path d="M632.958 21.9814C634.778 21.9814 636.234 23.1014 636.234 26.3214C636.234 29.4854 634.834 30.6894 632.958 30.6894C631.082 30.6894 629.682 29.4854 629.682 26.3214C629.682 23.1014 631.138 21.9814 632.958 21.9814ZM632.958 18.3974C628.786 18.3974 624.978 20.8614 624.978 26.3214C624.978 31.7814 628.786 34.2734 632.958 34.2734C637.13 34.2734 640.938 31.7814 640.938 26.3214C640.938 20.8614 637.13 18.3974 632.958 18.3974Z" fill="#828D8B"/>
<path d="M642.787 18.8454V33.9094H647.435V18.8454H642.787ZM642.787 13.6094V17.3054H647.407V13.6094H642.787Z" fill="#828D8B"/>
<path d="M654.804 18.8454H650.184V33.9094H654.804V26.1814C654.804 23.3814 655.616 22.0934 657.604 22.0934C659.844 22.0934 659.928 23.8574 659.928 26.0134V33.9094H664.548V24.8654C664.548 20.7774 663.344 18.5094 659.48 18.5094C657.1 18.5094 655.476 19.7134 654.804 20.8334V18.8454Z" fill="#828D8B"/>
<path d="M667.742 18.8454H665.362V22.1214H667.742V29.6814C667.742 33.1814 669.002 33.9094 672.726 33.9094H675.666V30.5774H674.35C672.81 30.5774 672.362 30.2974 672.362 28.8694V22.1214H675.666V18.8454H672.362V14.7294H667.742V18.8454Z" fill="#828D8B"/>
<circle cx="758" cy="24" r="17" stroke="#828D8B" stroke-width="6"/>
<path d="M804.184 20.4135C804.184 21.4588 803.932 22.4388 803.428 23.3535C802.942 24.2681 802.168 25.0055 801.104 25.5655C800.058 26.1255 798.733 26.4055 797.128 26.4055H793.852V33.9095H789.932V14.3655H797.128C798.64 14.3655 799.928 14.6268 800.992 15.1495C802.056 15.6721 802.849 16.3908 803.372 17.3055C803.913 18.2201 804.184 19.2561 804.184 20.4135ZM796.96 23.2415C798.042 23.2415 798.845 22.9988 799.368 22.5135C799.89 22.0095 800.152 21.3095 800.152 20.4135C800.152 18.5095 799.088 17.5575 796.96 17.5575H793.852V23.2415H796.96Z" fill="#828D8B"/>
<path d="M812.735 34.1615C811.241 34.1615 809.897 33.8348 808.703 33.1815C807.508 32.5095 806.565 31.5668 805.875 30.3535C805.203 29.1401 804.867 27.7401 804.867 26.1535C804.867 24.5668 805.212 23.1668 805.903 21.9535C806.612 20.7401 807.573 19.8068 808.787 19.1535C810 18.4815 811.353 18.1455 812.847 18.1455C814.34 18.1455 815.693 18.4815 816.907 19.1535C818.12 19.8068 819.072 20.7401 819.763 21.9535C820.472 23.1668 820.827 24.5668 820.827 26.1535C820.827 27.7401 820.463 29.1401 819.735 30.3535C819.025 31.5668 818.055 32.5095 816.823 33.1815C815.609 33.8348 814.247 34.1615 812.735 34.1615ZM812.735 30.7455C813.444 30.7455 814.107 30.5775 814.723 30.2415C815.357 29.8868 815.861 29.3641 816.235 28.6735C816.608 27.9828 816.795 27.1428 816.795 26.1535C816.795 24.6788 816.403 23.5495 815.619 22.7655C814.853 21.9628 813.911 21.5615 812.791 21.5615C811.671 21.5615 810.728 21.9628 809.963 22.7655C809.216 23.5495 808.843 24.6788 808.843 26.1535C808.843 27.6281 809.207 28.7668 809.935 29.5695C810.681 30.3535 811.615 30.7455 812.735 30.7455Z" fill="#828D8B"/>
<path d="M826.502 13.1895V33.9095H822.582V13.1895H826.502Z" fill="#828D8B"/>
<path d="M844.095 18.3975L834.491 41.2455H830.319L833.679 33.5175L827.463 18.3975H831.859L835.863 29.2335L839.923 18.3975H844.095Z" fill="#828D8B"/>
<path d="M864.352 18.1735C866.256 18.1735 867.787 18.7615 868.944 19.9375C870.12 21.0948 870.708 22.7188 870.708 24.8095V33.9095H866.788V25.3415C866.788 24.1281 866.48 23.2041 865.864 22.5695C865.248 21.9161 864.408 21.5895 863.344 21.5895C862.28 21.5895 861.431 21.9161 860.796 22.5695C860.18 23.2041 859.872 24.1281 859.872 25.3415V33.9095H855.952V25.3415C855.952 24.1281 855.644 23.2041 855.028 22.5695C854.412 21.9161 853.572 21.5895 852.508 21.5895C851.426 21.5895 850.567 21.9161 849.932 22.5695C849.316 23.2041 849.008 24.1281 849.008 25.3415V33.9095H845.088V18.3975H849.008V20.2735C849.512 19.6201 850.156 19.1068 850.94 18.7335C851.743 18.3601 852.62 18.1735 853.572 18.1735C854.786 18.1735 855.868 18.4348 856.82 18.9575C857.772 19.4615 858.51 20.1895 859.032 21.1415C859.536 20.2455 860.264 19.5268 861.216 18.9855C862.187 18.4441 863.232 18.1735 864.352 18.1735Z" fill="#828D8B"/>
<path d="M872.3 26.0975C872.3 24.5295 872.608 23.1388 873.224 21.9255C873.859 20.7121 874.708 19.7788 875.772 19.1255C876.855 18.4721 878.059 18.1455 879.384 18.1455C880.542 18.1455 881.55 18.3788 882.408 18.8455C883.286 19.3121 883.986 19.9001 884.508 20.6095V18.3975H888.456V33.9095H884.508V31.6415C884.004 32.3695 883.304 32.9761 882.408 33.4615C881.531 33.9281 880.514 34.1615 879.356 34.1615C878.05 34.1615 876.855 33.8255 875.772 33.1535C874.708 32.4815 873.859 31.5388 873.224 30.3255C872.608 29.0935 872.3 27.6841 872.3 26.0975ZM884.508 26.1535C884.508 25.2015 884.322 24.3895 883.948 23.7175C883.575 23.0268 883.071 22.5041 882.436 22.1495C881.802 21.7761 881.12 21.5895 880.392 21.5895C879.664 21.5895 878.992 21.7668 878.376 22.1215C877.76 22.4761 877.256 22.9988 876.864 23.6895C876.491 24.3615 876.304 25.1641 876.304 26.0975C876.304 27.0308 876.491 27.8521 876.864 28.5615C877.256 29.2521 877.76 29.7841 878.376 30.1575C879.011 30.5308 879.683 30.7175 880.392 30.7175C881.12 30.7175 881.802 30.5401 882.436 30.1855C883.071 29.8121 883.575 29.2895 883.948 28.6175C884.322 27.9268 884.508 27.1055 884.508 26.1535Z" fill="#828D8B"/>
<path d="M895.729 21.6175V29.1215C895.729 29.6441 895.85 30.0268 896.093 30.2695C896.354 30.4935 896.783 30.6055 897.381 30.6055H899.201V33.9095H896.737C893.433 33.9095 891.781 32.3041 891.781 29.0935V21.6175H889.933V18.3975H891.781V14.5615H895.729V18.3975H899.201V21.6175H895.729Z" fill="#828D8B"/>
<path d="M909.636 18.1735C910.812 18.1735 911.858 18.4348 912.772 18.9575C913.687 19.4615 914.396 20.2175 914.9 21.2255C915.423 22.2148 915.684 23.4095 915.684 24.8095V33.9095H911.764V25.3415C911.764 24.1095 911.456 23.1668 910.84 22.5135C910.224 21.8415 909.384 21.5055 908.32 21.5055C907.238 21.5055 906.379 21.8415 905.744 22.5135C905.128 23.1668 904.82 24.1095 904.82 25.3415V33.9095H900.9V13.1895H904.82V20.3295C905.324 19.6575 905.996 19.1348 906.836 18.7615C907.676 18.3695 908.61 18.1735 909.636 18.1735Z" fill="#828D8B"/>
<path fill-rule="evenodd" clip-rule="evenodd" d="M978 24C991.984 24 1000 15.9836 1000 2C1000 15.9836 1008.02 24 1022 24C1008.02 24 1000 32.0164 1000 46C1000 32.0164 991.984 24 978 24Z" fill="#828D8B"/>
<path d="M1030.69 33.9093L1038.37 12.9093H1042.69L1050.37 33.9093H1046.29L1044.61 29.0493H1036.42L1034.71 33.9093H1030.69ZM1037.47 26.0493H1043.56L1040.5 17.3193L1037.47 26.0493Z" fill="#828D8B"/>
<path d="M1058.07 34.2693C1056.55 34.2693 1055.21 33.9393 1054.05 33.2793C1052.89 32.6193 1051.97 31.6993 1051.29 30.5193C1050.63 29.3393 1050.3 27.9893 1050.3 26.4693C1050.3 24.9493 1050.63 23.5993 1051.29 22.4193C1051.97 21.2393 1052.89 20.3193 1054.05 19.6593C1055.21 18.9993 1056.55 18.6693 1058.07 18.6693C1059.97 18.6693 1061.57 19.1693 1062.87 20.1693C1064.17 21.1493 1065 22.5093 1065.36 24.2493H1061.31C1061.11 23.5293 1060.71 22.9693 1060.11 22.5693C1059.53 22.1493 1058.84 21.9393 1058.04 21.9393C1056.98 21.9393 1056.08 22.3393 1055.34 23.1393C1054.6 23.9393 1054.23 25.0493 1054.23 26.4693C1054.23 27.8893 1054.6 28.9993 1055.34 29.7993C1056.08 30.5993 1056.98 30.9993 1058.04 30.9993C1058.84 30.9993 1059.53 30.7993 1060.11 30.3993C1060.71 29.9993 1061.11 29.4293 1061.31 28.6893H1065.36C1065 30.3693 1064.17 31.7193 1062.87 32.7393C1061.57 33.7593 1059.97 34.2693 1058.07 34.2693Z" fill="#828D8B"/>
<path d="M1067.27 33.9093V19.0293H1070.66L1070.99 21.0393C1071.47 20.3193 1072.1 19.7493 1072.88 19.3293C1073.68 18.8893 1074.6 18.6693 1075.64 18.6693C1077.94 18.6693 1079.57 19.5593 1080.53 21.3393C1081.07 20.5193 1081.79 19.8693 1082.69 19.3893C1083.61 18.9093 1084.61 18.6693 1085.69 18.6693C1087.63 18.6693 1089.12 19.2493 1090.16 20.4093C1091.2 21.5693 1091.72 23.2693 1091.72 25.5093V33.9093H1087.88V25.8693C1087.88 24.5893 1087.63 23.6093 1087.13 22.9293C1086.65 22.2493 1085.9 21.9093 1084.88 21.9093C1083.84 21.9093 1083 22.2893 1082.36 23.0493C1081.74 23.8093 1081.43 24.8693 1081.43 26.2293V33.9093H1077.59V25.8693C1077.59 24.5893 1077.34 23.6093 1076.84 22.9293C1076.34 22.2493 1075.57 21.9093 1074.53 21.9093C1073.51 21.9093 1072.68 22.2893 1072.04 23.0493C1071.42 23.8093 1071.11 24.8693 1071.11 26.2293V33.9093H1067.27Z" fill="#828D8B"/>
<path d="M1101.1 34.2693C1099.6 34.2693 1098.27 33.9493 1097.11 33.3093C1095.95 32.6693 1095.04 31.7693 1094.38 30.6093C1093.72 29.4493 1093.39 28.1093 1093.39 26.5893C1093.39 25.0493 1093.71 23.6793 1094.35 22.4793C1095.01 21.2793 1095.91 20.3493 1097.05 19.6893C1098.21 19.0093 1099.57 18.6693 1101.13 18.6693C1102.59 18.6693 1103.88 18.9893 1105 19.6293C1106.12 20.2693 1106.99 21.1493 1107.61 22.2693C1108.25 23.3693 1108.57 24.5993 1108.57 25.9593C1108.57 26.1793 1108.56 26.4093 1108.54 26.6493C1108.54 26.8893 1108.53 27.1393 1108.51 27.3993H1097.2C1097.28 28.5593 1097.68 29.4693 1098.4 30.1293C1099.14 30.7893 1100.03 31.1193 1101.07 31.1193C1101.85 31.1193 1102.5 30.9493 1103.02 30.6093C1103.56 30.2493 1103.96 29.7893 1104.22 29.2293H1108.12C1107.84 30.1693 1107.37 31.0293 1106.71 31.8093C1106.07 32.5693 1105.27 33.1693 1104.31 33.6093C1103.37 34.0493 1102.3 34.2693 1101.1 34.2693ZM1101.13 21.7893C1100.19 21.7893 1099.36 22.0593 1098.64 22.5993C1097.92 23.1193 1097.46 23.9193 1097.26 24.9993H1104.67C1104.61 24.0193 1104.25 23.2393 1103.59 22.6593C1102.93 22.0793 1102.11 21.7893 1101.13 21.7893Z" fill="#828D8B"/>
<path d="M1125.54 34.2693C1123.42 34.2693 1121.6 33.8193 1120.08 32.9193C1118.56 31.9993 1117.39 30.7293 1116.57 29.1093C1115.75 27.4693 1115.34 25.5793 1115.34 23.4393C1115.34 21.2993 1115.75 19.4093 1116.57 17.7693C1117.39 16.1293 1118.56 14.8493 1120.08 13.9293C1121.6 13.0093 1123.42 12.5493 1125.54 12.5493C1128.06 12.5493 1130.12 13.1793 1131.72 14.4393C1133.34 15.6793 1134.35 17.4293 1134.75 19.6893H1130.52C1130.26 18.5493 1129.7 17.6593 1128.84 17.0193C1128 16.3593 1126.88 16.0293 1125.48 16.0293C1123.54 16.0293 1122.02 16.6893 1120.92 18.0093C1119.82 19.3293 1119.27 21.1393 1119.27 23.4393C1119.27 25.7393 1119.82 27.5493 1120.92 28.8693C1122.02 30.1693 1123.54 30.8193 1125.48 30.8193C1126.88 30.8193 1128 30.5193 1128.84 29.9193C1129.7 29.2993 1130.26 28.4493 1130.52 27.3693H1134.75C1134.35 29.5293 1133.34 31.2193 1131.72 32.4393C1130.12 33.6593 1128.06 34.2693 1125.54 34.2693Z" fill="#828D8B"/>
<path d="M1143.7 34.2693C1142.26 34.2693 1140.96 33.9393 1139.8 33.2793C1138.66 32.6193 1137.75 31.7093 1137.07 30.5493C1136.41 29.3693 1136.08 28.0093 1136.08 26.4693C1136.08 24.9293 1136.42 23.5793 1137.1 22.4193C1137.78 21.2393 1138.69 20.3193 1139.83 19.6593C1140.99 18.9993 1142.29 18.6693 1143.73 18.6693C1145.15 18.6693 1146.43 18.9993 1147.57 19.6593C1148.73 20.3193 1149.64 21.2393 1150.3 22.4193C1150.98 23.5793 1151.32 24.9293 1151.32 26.4693C1151.32 28.0093 1150.98 29.3693 1150.3 30.5493C1149.64 31.7093 1148.73 32.6193 1147.57 33.2793C1146.41 33.9393 1145.12 34.2693 1143.7 34.2693ZM1143.7 30.9393C1144.7 30.9393 1145.57 30.5693 1146.31 29.8293C1147.05 29.0693 1147.42 27.9493 1147.42 26.4693C1147.42 24.9893 1147.05 23.8793 1146.31 23.1393C1145.57 22.3793 1144.71 21.9993 1143.73 21.9993C1142.71 21.9993 1141.83 22.3793 1141.09 23.1393C1140.37 23.8793 1140.01 24.9893 1140.01 26.4693C1140.01 27.9493 1140.37 29.0693 1141.09 29.8293C1141.83 30.5693 1142.7 30.9393 1143.7 30.9393Z" fill="#828D8B"/>
<path d="M1153.26 33.9093V19.0293H1156.68L1157.04 21.8193C1157.58 20.8593 1158.31 20.0993 1159.23 19.5393C1160.17 18.9593 1161.27 18.6693 1162.53 18.6693V22.7193H1161.45C1160.61 22.7193 1159.86 22.8493 1159.2 23.1093C1158.54 23.3693 1158.02 23.8193 1157.64 24.4593C1157.28 25.0993 1157.1 25.9893 1157.1 27.1293V33.9093H1153.26Z" fill="#828D8B"/>
<path d="M1163.65 40.5093V19.0293H1167.07L1167.49 21.1593C1167.97 20.4993 1168.6 19.9193 1169.38 19.4193C1170.18 18.9193 1171.21 18.6693 1172.47 18.6693C1173.87 18.6693 1175.12 19.0093 1176.22 19.6893C1177.32 20.3693 1178.19 21.2993 1178.83 22.4793C1179.47 23.6593 1179.79 24.9993 1179.79 26.4993C1179.79 27.9993 1179.47 29.3393 1178.83 30.5193C1178.19 31.6793 1177.32 32.5993 1176.22 33.2793C1175.12 33.9393 1173.87 34.2693 1172.47 34.2693C1171.35 34.2693 1170.37 34.0593 1169.53 33.6393C1168.69 33.2193 1168.01 32.6293 1167.49 31.8693V40.5093H1163.65ZM1171.66 30.9093C1172.88 30.9093 1173.89 30.4993 1174.69 29.6793C1175.49 28.8593 1175.89 27.7993 1175.89 26.4993C1175.89 25.1993 1175.49 24.1293 1174.69 23.2893C1173.89 22.4493 1172.88 22.0293 1171.66 22.0293C1170.42 22.0293 1169.4 22.4493 1168.6 23.2893C1167.82 24.1093 1167.43 25.1693 1167.43 26.4693C1167.43 27.7693 1167.82 28.8393 1168.6 29.6793C1169.4 30.4993 1170.42 30.9093 1171.66 30.9093Z" fill="#828D8B"/>
<path opacity="0.8" d="M1278.31 11.1633C1277.87 10.7311 1277.44 10.2989 1277.01 9.86666C1275.71 8.48356 1274.33 7.10046 1272.6 6.23602C1270.61 5.19869 1268.45 5.45801 1266.29 5.45801C1263.01 5.45801 1254.79 5.45801 1249.95 5.45801L1253.24 9.86666C1259.2 9.86666 1268.54 9.86666 1272.86 9.86666C1274.68 9.86666 1276.23 10.2124 1277.7 11.1633C1277.96 11.2498 1278.22 11.2498 1278.31 11.1633Z" fill="#828D8B"/>
<path opacity="0.9" d="M1281.94 18.2517C1281.5 17.8195 1281.07 17.3873 1280.64 16.955C1279.34 15.5719 1277.96 14.1888 1276.23 13.3244C1274.24 12.2871 1272.08 12.5464 1269.92 12.5464C1267.07 12.5464 1260.24 12.5464 1255.4 12.5464L1258.68 16.955C1264.56 16.955 1272.6 16.955 1276.58 16.955C1278.39 16.955 1279.95 17.3008 1281.42 18.2517C1281.59 18.3381 1281.76 18.3381 1281.94 18.2517Z" fill="#828D8B"/>
<path d="M1286 25.1667C1285.57 24.7345 1285.14 24.3023 1284.7 23.8701C1283.41 22.487 1282.02 21.1039 1280.29 20.2394C1278.31 19.2021 1276.15 19.4614 1273.98 19.4614C1271.3 19.4614 1265.43 19.4614 1260.67 19.4614L1263.96 23.8701C1269.66 23.8701 1276.92 23.8701 1280.55 23.8701C1282.37 23.8701 1283.93 24.2159 1285.39 25.1667C1285.65 25.2532 1285.83 25.3396 1286 25.1667Z" fill="#828D8B"/>
<path opacity="0.8" d="M1249.61 36.8368C1250.04 37.269 1250.47 37.7012 1250.9 38.1335C1252.2 39.5166 1253.58 40.8997 1255.31 41.7641C1257.3 42.8014 1259.46 42.5421 1261.62 42.5421H1277.96L1274.68 38.1335C1268.71 38.1335 1259.38 38.1335 1255.05 38.1335C1253.24 38.1335 1251.68 37.7877 1250.21 36.8368C1249.95 36.7504 1249.78 36.7504 1249.61 36.8368Z" fill="#828D8B"/>
<path opacity="0.9" d="M1245.98 29.7489C1246.41 30.1811 1246.84 30.6134 1247.27 31.0456C1248.57 32.4287 1249.95 33.8118 1251.68 34.6762C1253.67 35.7136 1255.83 35.4542 1257.99 35.4542H1272.51L1269.23 31.0456C1263.35 31.0456 1255.31 31.0456 1251.34 31.0456C1249.52 31.0456 1247.96 30.6998 1246.5 29.7489C1246.32 29.6625 1246.15 29.6625 1245.98 29.7489Z" fill="#828D8B"/>
<path d="M1242 22.7465C1242.43 23.1787 1242.86 23.6109 1243.3 24.0431C1244.59 25.4262 1245.98 26.8094 1247.71 27.6738C1249.69 28.7111 1251.85 28.4518 1254.02 28.4518H1267.33L1264.04 24.0431C1258.34 24.0431 1251.08 24.0431 1247.45 24.0431C1245.63 24.0431 1244.07 23.6974 1242.61 22.7465C1242.35 22.66 1242.17 22.66 1242 22.7465Z" fill="#828D8B"/>
<path d="M1295.93 14.0078V33.9998H1300.33V25.7398H1308.7V22.3238H1300.33V17.7038H1309.99V14.0078H1295.93Z" fill="#828D8B"/>
<path d="M1321.01 25.2078H1314.55C1314.56 24.9278 1314.62 24.6105 1314.71 24.2558C1314.83 23.9011 1315 23.5651 1315.25 23.2478C1315.51 22.9305 1315.84 22.6691 1316.25 22.4638C1316.68 22.2398 1317.21 22.1278 1317.85 22.1278C1318.82 22.1278 1319.54 22.3891 1320.01 22.9118C1320.49 23.4345 1320.83 24.1998 1321.01 25.2078ZM1314.55 27.7278H1324.99C1325.06 26.6078 1324.97 25.5345 1324.71 24.5078C1324.45 23.4811 1324.02 22.5665 1323.42 21.7638C1322.84 20.9611 1322.1 20.3265 1321.18 19.8598C1320.27 19.3745 1319.19 19.1318 1317.96 19.1318C1316.86 19.1318 1315.85 19.3278 1314.94 19.7198C1314.04 20.1118 1313.27 20.6531 1312.61 21.3438C1311.96 22.0158 1311.46 22.8185 1311.1 23.7518C1310.75 24.6851 1310.57 25.6931 1310.57 26.7758C1310.57 27.8958 1310.74 28.9225 1311.07 29.8558C1311.43 30.7891 1311.92 31.5918 1312.56 32.2638C1313.19 32.9358 1313.97 33.4585 1314.88 33.8318C1315.8 34.1865 1316.82 34.3638 1317.96 34.3638C1319.6 34.3638 1321 33.9905 1322.16 33.2438C1323.32 32.4971 1324.18 31.2558 1324.74 29.5198H1321.24C1321.11 29.9678 1320.75 30.3971 1320.17 30.8078C1319.59 31.1998 1318.9 31.3958 1318.1 31.3958C1316.98 31.3958 1316.12 31.1065 1315.53 30.5278C1314.93 29.9491 1314.6 29.0158 1314.55 27.7278Z" fill="#828D8B"/>
<path d="M1326.34 23.9758C1326.4 23.0425 1326.63 22.2678 1327.04 21.6518C1327.45 21.0358 1327.97 20.5411 1328.61 20.1678C1329.24 19.7945 1329.95 19.5331 1330.74 19.3838C1331.54 19.2158 1332.34 19.1318 1333.14 19.1318C1333.87 19.1318 1334.61 19.1878 1335.36 19.2998C1336.1 19.3931 1336.78 19.5891 1337.4 19.8878C1338.02 20.1865 1338.52 20.6065 1338.91 21.1478C1339.3 21.6705 1339.5 22.3705 1339.5 23.2478V30.7798C1339.5 31.4331 1339.54 32.0585 1339.61 32.6558C1339.69 33.2531 1339.82 33.7011 1340 33.9998H1335.97C1335.9 33.7758 1335.83 33.5518 1335.78 33.3278C1335.74 33.0851 1335.71 32.8425 1335.69 32.5998C1335.06 33.2531 1334.31 33.7105 1333.45 33.9718C1332.59 34.2331 1331.72 34.3638 1330.82 34.3638C1330.13 34.3638 1329.48 34.2798 1328.89 34.1118C1328.29 33.9438 1327.77 33.6825 1327.32 33.3278C1326.87 32.9731 1326.52 32.5251 1326.26 31.9838C1326.01 31.4425 1325.89 30.7985 1325.89 30.0518C1325.89 29.2305 1326.03 28.5585 1326.31 28.0358C1326.61 27.4945 1326.98 27.0651 1327.43 26.7478C1327.9 26.4305 1328.42 26.1971 1329 26.0478C1329.6 25.8798 1330.19 25.7491 1330.79 25.6558C1331.39 25.5625 1331.98 25.4878 1332.56 25.4318C1333.13 25.3758 1333.65 25.2918 1334.1 25.1798C1334.54 25.0678 1334.9 24.9091 1335.16 24.7038C1335.42 24.4798 1335.54 24.1625 1335.52 23.7518C1335.52 23.3225 1335.45 22.9865 1335.3 22.7438C1335.17 22.4825 1334.98 22.2865 1334.74 22.1558C1334.52 22.0065 1334.24 21.9131 1333.93 21.8758C1333.63 21.8198 1333.3 21.7918 1332.95 21.7918C1332.16 21.7918 1331.55 21.9598 1331.1 22.2958C1330.65 22.6318 1330.39 23.1918 1330.32 23.9758H1326.34ZM1335.52 26.9158C1335.36 27.0651 1335.14 27.1865 1334.88 27.2798C1334.64 27.3545 1334.37 27.4198 1334.07 27.4758C1333.79 27.5318 1333.49 27.5785 1333.17 27.6158C1332.85 27.6531 1332.54 27.6998 1332.22 27.7558C1331.92 27.8118 1331.62 27.8865 1331.32 27.9798C1331.04 28.0731 1330.79 28.2038 1330.57 28.3718C1330.36 28.5211 1330.19 28.7171 1330.06 28.9598C1329.93 29.2025 1329.87 29.5105 1329.87 29.8838C1329.87 30.2385 1329.93 30.5371 1330.06 30.7798C1330.19 31.0225 1330.37 31.2185 1330.6 31.3678C1330.82 31.4985 1331.08 31.5918 1331.38 31.6478C1331.68 31.7038 1331.99 31.7318 1332.3 31.7318C1333.09 31.7318 1333.69 31.6011 1334.12 31.3398C1334.55 31.0785 1334.87 30.7705 1335.08 30.4158C1335.28 30.0425 1335.4 29.6691 1335.44 29.2958C1335.5 28.9225 1335.52 28.6238 1335.52 28.3998V26.9158Z" fill="#828D8B"/>
<path d="M1346.79 19.5238V15.1838H1342.81V19.5238H1340.4V22.1838H1342.81V30.7238C1342.81 31.4518 1342.93 32.0398 1343.17 32.4878C1343.42 32.9358 1343.74 33.2811 1344.15 33.5238C1344.58 33.7665 1345.07 33.9251 1345.61 33.9998C1346.17 34.0931 1346.76 34.1398 1347.37 34.1398C1347.77 34.1398 1348.17 34.1305 1348.58 34.1118C1348.99 34.0931 1349.36 34.0558 1349.7 33.9998V30.9198C1349.51 30.9571 1349.31 30.9851 1349.11 31.0038C1348.9 31.0225 1348.69 31.0318 1348.47 31.0318C1347.79 31.0318 1347.35 30.9198 1347.12 30.6958C1346.9 30.4718 1346.79 30.0238 1346.79 29.3518V22.1838H1349.7V19.5238H1346.79Z" fill="#828D8B"/>
<path d="M1350.75 14.0078V33.9998H1354.73V26.4118C1354.73 24.9371 1354.97 23.8825 1355.45 23.2478C1355.94 22.5945 1356.72 22.2678 1357.81 22.2678C1358.76 22.2678 1359.42 22.5665 1359.79 23.1638C1360.17 23.7425 1360.35 24.6291 1360.35 25.8238V33.9998H1364.33V25.0958C1364.33 24.1998 1364.25 23.3878 1364.08 22.6598C1363.93 21.9131 1363.66 21.2878 1363.27 20.7838C1362.87 20.2611 1362.33 19.8598 1361.64 19.5798C1360.97 19.2811 1360.1 19.1318 1359.04 19.1318C1358.29 19.1318 1357.53 19.3278 1356.74 19.7198C1355.96 20.0931 1355.31 20.6998 1354.81 21.5398H1354.73V14.0078H1350.75Z" fill="#828D8B"/>
<path d="M1376.25 25.2078H1369.78C1369.8 24.9278 1369.86 24.6105 1369.95 24.2558C1370.06 23.9011 1370.24 23.5651 1370.48 23.2478C1370.74 22.9305 1371.08 22.6691 1371.49 22.4638C1371.92 22.2398 1372.45 22.1278 1373.09 22.1278C1374.06 22.1278 1374.78 22.3891 1375.24 22.9118C1375.73 23.4345 1376.06 24.1998 1376.25 25.2078ZM1369.78 27.7278H1380.23C1380.3 26.6078 1380.21 25.5345 1379.95 24.5078C1379.69 23.4811 1379.26 22.5665 1378.66 21.7638C1378.08 20.9611 1377.33 20.3265 1376.42 19.8598C1375.5 19.3745 1374.43 19.1318 1373.2 19.1318C1372.1 19.1318 1371.09 19.3278 1370.17 19.7198C1369.28 20.1118 1368.5 20.6531 1367.85 21.3438C1367.2 22.0158 1366.69 22.8185 1366.34 23.7518C1365.98 24.6851 1365.81 25.6931 1365.81 26.7758C1365.81 27.8958 1365.97 28.9225 1366.31 29.8558C1366.67 30.7891 1367.16 31.5918 1367.79 32.2638C1368.43 32.9358 1369.2 33.4585 1370.12 33.8318C1371.03 34.1865 1372.06 34.3638 1373.2 34.3638C1374.84 34.3638 1376.24 33.9905 1377.4 33.2438C1378.56 32.4971 1379.41 31.2558 1379.97 29.5198H1376.47C1376.34 29.9678 1375.99 30.3971 1375.41 30.8078C1374.83 31.1998 1374.14 31.3958 1373.34 31.3958C1372.22 31.3958 1371.36 31.1065 1370.76 30.5278C1370.17 29.9491 1369.84 29.0158 1369.78 27.7278Z" fill="#828D8B"/>
<path d="M1381.75 19.5238V33.9998H1385.72V27.4758C1385.72 26.8225 1385.79 26.2158 1385.92 25.6558C1386.05 25.0958 1386.26 24.6105 1386.56 24.1998C1386.88 23.7705 1387.29 23.4345 1387.79 23.1918C1388.3 22.9491 1388.91 22.8278 1389.64 22.8278C1389.88 22.8278 1390.14 22.8465 1390.4 22.8838C1390.66 22.9025 1390.88 22.9305 1391.07 22.9678V19.2718C1390.75 19.1785 1390.46 19.1318 1390.2 19.1318C1389.7 19.1318 1389.21 19.2065 1388.75 19.3558C1388.28 19.5051 1387.84 19.7198 1387.43 19.9998C1387.02 20.2611 1386.65 20.5878 1386.34 20.9798C1386.02 21.3531 1385.77 21.7638 1385.58 22.2118H1385.53V19.5238H1381.75Z" fill="#828D8B"/>
<path d="M1396.6 30.3038V17.7038H1399.74C1400.82 17.7038 1401.73 17.8625 1402.46 18.1798C1403.2 18.4785 1403.8 18.9171 1404.25 19.4958C1404.7 20.0745 1405.01 20.7745 1405.2 21.5958C1405.41 22.3985 1405.51 23.3038 1405.51 24.3118C1405.51 25.4131 1405.37 26.3465 1405.09 27.1118C1404.81 27.8771 1404.43 28.5025 1403.97 28.9878C1403.5 29.4545 1402.97 29.7905 1402.37 29.9958C1401.77 30.2011 1401.16 30.3038 1400.52 30.3038H1396.6ZM1392.21 14.0078V33.9998H1400.83C1402.36 33.9998 1403.69 33.7478 1404.81 33.2438C1405.95 32.7211 1406.89 32.0118 1407.64 31.1158C1408.4 30.2198 1408.97 29.1558 1409.34 27.9238C1409.72 26.6918 1409.9 25.3478 1409.9 23.8918C1409.9 22.2305 1409.67 20.7838 1409.2 19.5518C1408.76 18.3198 1408.12 17.2931 1407.3 16.4718C1406.5 15.6505 1405.54 15.0345 1404.42 14.6238C1403.31 14.2131 1402.12 14.0078 1400.83 14.0078H1392.21Z" fill="#828D8B"/>
<path d="M1421.45 25.2078H1414.98C1415 24.9278 1415.05 24.6105 1415.15 24.2558C1415.26 23.9011 1415.44 23.5651 1415.68 23.2478C1415.94 22.9305 1416.28 22.6691 1416.69 22.4638C1417.12 22.2398 1417.65 22.1278 1418.28 22.1278C1419.25 22.1278 1419.97 22.3891 1420.44 22.9118C1420.92 23.4345 1421.26 24.1998 1421.45 25.2078ZM1414.98 27.7278H1425.42C1425.5 26.6078 1425.4 25.5345 1425.14 24.5078C1424.88 23.4811 1424.45 22.5665 1423.85 21.7638C1423.28 20.9611 1422.53 20.3265 1421.61 19.8598C1420.7 19.3745 1419.63 19.1318 1418.39 19.1318C1417.29 19.1318 1416.28 19.3278 1415.37 19.7198C1414.47 20.1118 1413.7 20.6531 1413.05 21.3438C1412.39 22.0158 1411.89 22.8185 1411.53 23.7518C1411.18 24.6851 1411 25.6931 1411 26.7758C1411 27.8958 1411.17 28.9225 1411.51 29.8558C1411.86 30.7891 1412.36 31.5918 1412.99 32.2638C1413.62 32.9358 1414.4 33.4585 1415.31 33.8318C1416.23 34.1865 1417.26 34.3638 1418.39 34.3638C1420.04 34.3638 1421.44 33.9905 1422.59 33.2438C1423.75 32.4971 1424.61 31.2558 1425.17 29.5198H1421.67C1421.54 29.9678 1421.18 30.3971 1420.61 30.8078C1420.03 31.1998 1419.34 31.3958 1418.53 31.3958C1417.41 31.3958 1416.56 31.1065 1415.96 30.5278C1415.36 29.9491 1415.03 29.0158 1414.98 27.7278Z" fill="#828D8B"/>
<path d="M1434.95 33.9998L1439.85 19.5238H1435.9L1432.85 29.4078H1432.79L1429.74 19.5238H1425.57L1430.52 33.9998H1434.95Z" fill="#828D8B"/>
</svg>

