<svg width="610" height="530" viewBox="0 0 610 530" fill="none" xmlns="http://www.w3.org/2000/svg">
<rect x="106" y="93" width="399" height="314" rx="13.77" fill="#272727" fill-opacity="0.1"/>
<rect x="78" y="123" width="455" height="314" rx="13.77" fill="#272727" fill-opacity="0.2"/>
<path d="M54 166.77C54 159.165 60.1649 153 67.7697 153H541.964C549.568 153 555.733 159.165 555.733 166.77V423.23C555.733 430.835 549.568 437 541.964 437H67.7697C60.1649 437 54 430.835 54 423.23V166.77Z" fill="#272727"/>
<path d="M75.1337 179.944V178.613H82.1249V179.944H79.4166V187.376H77.8421V179.944H75.1337ZM85.3178 187.504C84.676 187.504 84.1198 187.363 83.6492 187.081C83.1785 186.798 82.8134 186.403 82.5539 185.896C82.2972 185.388 82.1688 184.795 82.1688 184.116C82.1688 183.437 82.2972 182.842 82.5539 182.332C82.8134 181.821 83.1785 181.424 83.6492 181.142C84.1198 180.86 84.676 180.719 85.3178 180.719C85.9596 180.719 86.5158 180.86 86.9865 181.142C87.4571 181.424 87.8208 181.821 88.0775 182.332C88.3371 182.842 88.4669 183.437 88.4669 184.116C88.4669 184.795 88.3371 185.388 88.0775 185.896C87.8208 186.403 87.4571 186.798 86.9865 187.081C86.5158 187.363 85.9596 187.504 85.3178 187.504ZM85.3264 186.264C85.6744 186.264 85.9653 186.168 86.1992 185.977C86.4331 185.783 86.6071 185.523 86.7212 185.198C86.8382 184.873 86.8966 184.511 86.8966 184.111C86.8966 183.709 86.8382 183.346 86.7212 183.02C86.6071 182.692 86.4331 182.431 86.1992 182.237C85.9653 182.043 85.6744 181.946 85.3264 181.946C84.9698 181.946 84.6732 182.043 84.4364 182.237C84.2026 182.431 84.0271 182.692 83.9102 183.02C83.7961 183.346 83.739 183.709 83.739 184.111C83.739 184.511 83.7961 184.873 83.9102 185.198C84.0271 185.523 84.2026 185.783 84.4364 185.977C84.6732 186.168 84.9698 186.264 85.3264 186.264ZM93.0631 180.804V182.002H89.2851V180.804H93.0631ZM90.2179 179.23H91.7667V185.399C91.7667 185.607 91.7981 185.767 91.8609 185.878C91.9265 185.987 92.012 186.061 92.1176 186.101C92.2231 186.141 92.3401 186.161 92.4684 186.161C92.5654 186.161 92.6538 186.154 92.7337 186.139C92.8164 186.125 92.8792 186.112 92.9219 186.101L93.1829 187.312C93.1002 187.34 92.9818 187.372 92.8278 187.406C92.6766 187.44 92.4912 187.46 92.2716 187.466C91.8837 187.477 91.5343 187.419 91.2233 187.29C90.9124 187.159 90.6657 186.957 90.4832 186.683C90.3035 186.409 90.215 186.067 90.2179 185.656V179.23ZM96.7267 187.491C96.2104 187.491 95.7483 187.359 95.3404 187.094C94.9325 186.828 94.6102 186.443 94.3735 185.938C94.1367 185.434 94.0183 184.82 94.0183 184.099C94.0183 183.368 94.1381 182.752 94.3777 182.25C94.6202 181.745 94.9468 181.365 95.3575 181.108C95.7683 180.848 96.2261 180.719 96.731 180.719C97.116 180.719 97.4326 180.784 97.6808 180.915C97.929 181.044 98.1258 181.199 98.2712 181.382C98.4167 181.561 98.5294 181.731 98.6092 181.891H98.6734V180.804H100.227V187.376H98.7034V186.341H98.6092C98.5294 186.5 98.4139 186.67 98.2627 186.85C98.1115 187.027 97.9118 187.178 97.6637 187.303C97.4155 187.429 97.1032 187.491 96.7267 187.491ZM97.1588 186.221C97.4868 186.221 97.7664 186.132 97.9974 185.955C98.2285 185.776 98.4039 185.526 98.5237 185.207C98.6435 184.887 98.7034 184.515 98.7034 184.09C98.7034 183.665 98.6435 183.296 98.5237 182.982C98.4067 182.668 98.2327 182.424 98.0017 182.25C97.7735 182.076 97.4925 181.989 97.1588 181.989C96.8137 181.989 96.5256 182.079 96.2945 182.259C96.0635 182.438 95.8895 182.687 95.7725 183.003C95.6556 183.32 95.5971 183.682 95.5971 184.09C95.5971 184.501 95.6556 184.867 95.7725 185.19C95.8923 185.509 96.0678 185.762 96.2988 185.947C96.5327 186.129 96.8194 186.221 97.1588 186.221ZM103.426 178.613V187.376H101.877V178.613H103.426ZM113.599 178.613H115.187V184.338C115.187 184.966 115.038 185.518 114.742 185.994C114.448 186.47 114.034 186.843 113.501 187.111C112.967 187.376 112.344 187.509 111.631 187.509C110.915 187.509 110.29 187.376 109.757 187.111C109.224 186.843 108.81 186.47 108.516 185.994C108.223 185.518 108.076 184.966 108.076 184.338V178.613H109.663V184.206C109.663 184.571 109.743 184.896 109.903 185.181C110.065 185.466 110.293 185.69 110.587 185.853C110.881 186.013 111.229 186.092 111.631 186.092C112.033 186.092 112.381 186.013 112.675 185.853C112.972 185.69 113.2 185.466 113.36 185.181C113.519 184.896 113.599 184.571 113.599 184.206V178.613ZM122.038 182.541L120.626 182.695C120.586 182.553 120.516 182.419 120.416 182.293C120.319 182.168 120.188 182.066 120.022 181.989C119.857 181.912 119.655 181.874 119.415 181.874C119.093 181.874 118.822 181.944 118.602 182.083C118.385 182.223 118.278 182.404 118.281 182.627C118.278 182.818 118.348 182.973 118.491 183.093C118.636 183.213 118.876 183.311 119.21 183.388L120.331 183.628C120.952 183.762 121.414 183.975 121.717 184.265C122.022 184.556 122.176 184.937 122.179 185.408C122.176 185.821 122.055 186.187 121.815 186.503C121.578 186.817 121.249 187.062 120.827 187.239C120.405 187.416 119.92 187.504 119.372 187.504C118.568 187.504 117.92 187.336 117.43 186.999C116.939 186.66 116.647 186.188 116.553 185.583L118.063 185.438C118.131 185.734 118.277 185.958 118.499 186.11C118.722 186.261 119.011 186.336 119.368 186.336C119.736 186.336 120.031 186.261 120.254 186.11C120.479 185.958 120.592 185.772 120.592 185.549C120.592 185.361 120.519 185.205 120.373 185.083C120.231 184.96 120.008 184.866 119.706 184.8L118.585 184.565C117.954 184.434 117.488 184.213 117.186 183.902C116.883 183.588 116.734 183.192 116.737 182.712C116.734 182.307 116.843 181.956 117.066 181.66C117.291 181.36 117.604 181.129 118.003 180.967C118.405 180.801 118.869 180.719 119.394 180.719C120.164 180.719 120.77 180.883 121.212 181.211C121.657 181.539 121.932 181.982 122.038 182.541ZM126.365 187.504C125.707 187.504 125.138 187.367 124.658 187.094C124.182 186.817 123.815 186.426 123.559 185.921C123.302 185.414 123.174 184.816 123.174 184.129C123.174 183.453 123.302 182.859 123.559 182.349C123.818 181.835 124.181 181.436 124.645 181.151C125.11 180.863 125.657 180.719 126.284 180.719C126.689 180.719 127.071 180.784 127.431 180.915C127.793 181.044 128.113 181.243 128.389 181.514C128.669 181.785 128.888 182.13 129.048 182.55C129.208 182.966 129.288 183.463 129.288 184.039V184.514H123.901V183.47H127.803C127.8 183.173 127.736 182.909 127.611 182.678C127.485 182.444 127.31 182.26 127.084 182.126C126.862 181.992 126.602 181.925 126.306 181.925C125.989 181.925 125.711 182.002 125.471 182.156C125.232 182.307 125.045 182.507 124.911 182.755C124.78 183 124.713 183.27 124.71 183.564V184.475C124.71 184.857 124.78 185.185 124.919 185.459C125.059 185.73 125.254 185.938 125.505 186.084C125.756 186.226 126.05 186.298 126.387 186.298C126.612 186.298 126.816 186.266 126.999 186.204C127.181 186.138 127.34 186.042 127.474 185.917C127.608 185.791 127.709 185.636 127.777 185.451L129.224 185.613C129.132 185.995 128.958 186.329 128.702 186.614C128.448 186.897 128.123 187.116 127.726 187.273C127.33 187.427 126.876 187.504 126.365 187.504ZM130.598 187.376V180.804H132.1V181.899H132.168C132.288 181.52 132.493 181.228 132.784 181.022C133.078 180.814 133.413 180.71 133.79 180.71C133.875 180.71 133.971 180.714 134.077 180.723C134.185 180.728 134.275 180.738 134.346 180.753V182.178C134.28 182.155 134.176 182.135 134.034 182.118C133.894 182.098 133.759 182.088 133.627 182.088C133.345 182.088 133.091 182.149 132.866 182.272C132.643 182.391 132.468 182.558 132.339 182.772C132.211 182.986 132.147 183.233 132.147 183.512V187.376H130.598ZM140.569 182.541L139.157 182.695C139.117 182.553 139.048 182.419 138.948 182.293C138.851 182.168 138.72 182.066 138.554 181.989C138.389 181.912 138.186 181.874 137.947 181.874C137.624 181.874 137.353 181.944 137.134 182.083C136.917 182.223 136.81 182.404 136.813 182.627C136.81 182.818 136.88 182.973 137.022 183.093C137.168 183.213 137.407 183.311 137.741 183.388L138.862 183.628C139.484 183.762 139.946 183.975 140.248 184.265C140.554 184.556 140.708 184.937 140.71 185.408C140.708 185.821 140.586 186.187 140.347 186.503C140.11 186.817 139.781 187.062 139.358 187.239C138.936 187.416 138.451 187.504 137.904 187.504C137.099 187.504 136.452 187.336 135.961 186.999C135.471 186.66 135.178 186.188 135.084 185.583L136.594 185.438C136.663 185.734 136.808 185.958 137.031 186.11C137.253 186.261 137.543 186.336 137.899 186.336C138.267 186.336 138.563 186.261 138.785 186.11C139.01 185.958 139.123 185.772 139.123 185.549C139.123 185.361 139.05 185.205 138.905 185.083C138.762 184.96 138.54 184.866 138.237 184.8L137.116 184.565C136.486 184.434 136.02 184.213 135.717 183.902C135.415 183.588 135.265 183.192 135.268 182.712C135.265 182.307 135.375 181.956 135.598 181.66C135.823 181.36 136.135 181.129 136.535 180.967C136.937 180.801 137.4 180.719 137.925 180.719C138.695 180.719 139.301 180.883 139.744 181.211C140.189 181.539 140.464 181.982 140.569 182.541Z" fill="#C6C7F8"/>
<path d="M156.006 179.555V178.613H162.578V179.555H159.823V187.376H158.762V179.555H156.006ZM165.796 187.513C165.202 187.513 164.682 187.372 164.234 187.089C163.789 186.807 163.441 186.412 163.19 185.904C162.942 185.396 162.818 184.803 162.818 184.124C162.818 183.44 162.942 182.842 163.19 182.332C163.441 181.821 163.789 181.424 164.234 181.142C164.682 180.86 165.202 180.719 165.796 180.719C166.389 180.719 166.908 180.86 167.353 181.142C167.801 181.424 168.149 181.821 168.397 182.332C168.648 182.842 168.773 183.44 168.773 184.124C168.773 184.803 168.648 185.396 168.397 185.904C168.149 186.412 167.801 186.807 167.353 187.089C166.908 187.372 166.389 187.513 165.796 187.513ZM165.796 186.606C166.246 186.606 166.617 186.49 166.908 186.259C167.199 186.028 167.414 185.724 167.554 185.348C167.694 184.971 167.764 184.564 167.764 184.124C167.764 183.685 167.694 183.276 167.554 182.896C167.414 182.517 167.199 182.21 166.908 181.976C166.617 181.743 166.246 181.626 165.796 181.626C165.345 181.626 164.974 181.743 164.683 181.976C164.392 182.21 164.177 182.517 164.037 182.896C163.897 183.276 163.827 183.685 163.827 184.124C163.827 184.564 163.897 184.971 164.037 185.348C164.177 185.724 164.392 186.028 164.683 186.259C164.974 186.49 165.345 186.606 165.796 186.606ZM173.173 180.804V181.66H169.767V180.804H173.173ZM170.76 179.23H171.769V185.493C171.769 185.779 171.811 185.993 171.894 186.135C171.979 186.275 172.088 186.369 172.219 186.418C172.353 186.463 172.494 186.486 172.642 186.486C172.754 186.486 172.845 186.48 172.916 186.469C172.987 186.455 173.045 186.443 173.087 186.435L173.293 187.342C173.224 187.367 173.129 187.393 173.006 187.419C172.883 187.447 172.728 187.462 172.54 187.462C172.254 187.462 171.975 187.4 171.701 187.278C171.43 187.155 171.205 186.968 171.025 186.717C170.848 186.466 170.76 186.149 170.76 185.767V179.23ZM177.103 187.513C176.555 187.513 176.072 187.375 175.652 187.098C175.233 186.818 174.905 186.425 174.668 185.917C174.431 185.406 174.313 184.803 174.313 184.107C174.313 183.417 174.431 182.818 174.668 182.31C174.905 181.802 175.234 181.41 175.657 181.134C176.079 180.857 176.566 180.719 177.12 180.719C177.548 180.719 177.886 180.79 178.134 180.932C178.385 181.072 178.576 181.232 178.707 181.412C178.841 181.588 178.945 181.734 179.02 181.848H179.105V180.804H180.115V187.376H179.139V186.366H179.02C178.945 186.486 178.84 186.637 178.703 186.82C178.566 186.999 178.371 187.161 178.117 187.303C177.863 187.443 177.525 187.513 177.103 187.513ZM177.24 186.606C177.645 186.606 177.987 186.5 178.267 186.289C178.546 186.075 178.759 185.78 178.904 185.404C179.049 185.024 179.122 184.586 179.122 184.09C179.122 183.599 179.051 183.17 178.908 182.802C178.766 182.431 178.555 182.143 178.275 181.938C177.996 181.73 177.65 181.626 177.24 181.626C176.812 181.626 176.455 181.735 176.17 181.955C175.888 182.172 175.675 182.467 175.533 182.841C175.393 183.211 175.323 183.628 175.323 184.09C175.323 184.558 175.394 184.983 175.537 185.365C175.682 185.744 175.896 186.047 176.179 186.272C176.464 186.495 176.818 186.606 177.24 186.606ZM183.114 178.613V187.376H182.104V178.613H183.114ZM188.489 187.376V178.613H191.45C192.137 178.613 192.699 178.738 193.136 178.986C193.575 179.231 193.9 179.563 194.111 179.983C194.322 180.402 194.428 180.87 194.428 181.386C194.428 181.902 194.322 182.371 194.111 182.794C193.903 183.216 193.581 183.552 193.144 183.803C192.708 184.052 192.149 184.176 191.467 184.176H189.345V183.234H191.433C191.903 183.234 192.281 183.153 192.567 182.99C192.852 182.828 193.059 182.608 193.187 182.332C193.318 182.052 193.384 181.737 193.384 181.386C193.384 181.035 193.318 180.721 193.187 180.445C193.059 180.168 192.85 179.951 192.562 179.794C192.274 179.635 191.892 179.555 191.416 179.555H189.55V187.376H188.489ZM196 187.376V180.804H196.976V181.797H197.044C197.164 181.472 197.381 181.208 197.694 181.005C198.008 180.803 198.362 180.701 198.756 180.701C198.83 180.701 198.922 180.703 199.034 180.706C199.145 180.709 199.229 180.713 199.286 180.719V181.745C199.252 181.737 199.173 181.724 199.051 181.707C198.931 181.687 198.804 181.677 198.67 181.677C198.351 181.677 198.065 181.744 197.814 181.878C197.566 182.009 197.369 182.192 197.224 182.426C197.081 182.657 197.01 182.921 197.01 183.217V187.376H196ZM202.953 187.513C202.36 187.513 201.839 187.372 201.391 187.089C200.946 186.807 200.598 186.412 200.347 185.904C200.099 185.396 199.975 184.803 199.975 184.124C199.975 183.44 200.099 182.842 200.347 182.332C200.598 181.821 200.946 181.424 201.391 181.142C201.839 180.86 202.36 180.719 202.953 180.719C203.546 180.719 204.065 180.86 204.51 181.142C204.958 181.424 205.306 181.821 205.554 182.332C205.805 182.842 205.931 183.44 205.931 184.124C205.931 184.803 205.805 185.396 205.554 185.904C205.306 186.412 204.958 186.807 204.51 187.089C204.065 187.372 203.546 187.513 202.953 187.513ZM202.953 186.606C203.404 186.606 203.774 186.49 204.065 186.259C204.356 186.028 204.572 185.724 204.711 185.348C204.851 184.971 204.921 184.564 204.921 184.124C204.921 183.685 204.851 183.276 204.711 182.896C204.572 182.517 204.356 182.21 204.065 181.976C203.774 181.743 203.404 181.626 202.953 181.626C202.502 181.626 202.131 181.743 201.84 181.976C201.549 182.21 201.334 182.517 201.194 182.896C201.055 183.276 200.985 183.685 200.985 184.124C200.985 184.564 201.055 184.971 201.194 185.348C201.334 185.724 201.549 186.028 201.84 186.259C202.131 186.49 202.502 186.606 202.953 186.606ZM207.472 180.804H208.482V187.855C208.482 188.26 208.412 188.611 208.272 188.908C208.135 189.204 207.927 189.434 207.648 189.597C207.371 189.759 207.021 189.84 206.599 189.84C206.565 189.84 206.531 189.84 206.497 189.84C206.462 189.84 206.428 189.84 206.394 189.84V188.899C206.428 188.899 206.46 188.899 206.488 188.899C206.517 188.899 206.548 188.899 206.582 188.899C206.89 188.899 207.116 188.808 207.258 188.625C207.401 188.446 207.472 188.189 207.472 187.855V180.804ZM207.968 179.709C207.772 179.709 207.602 179.642 207.459 179.508C207.32 179.374 207.25 179.212 207.25 179.024C207.25 178.836 207.32 178.675 207.459 178.541C207.602 178.407 207.772 178.34 207.968 178.34C208.165 178.34 208.334 178.407 208.473 178.541C208.616 178.675 208.687 178.836 208.687 179.024C208.687 179.212 208.616 179.374 208.473 179.508C208.334 179.642 208.165 179.709 207.968 179.709ZM213.087 187.513C212.453 187.513 211.907 187.373 211.448 187.094C210.992 186.811 210.639 186.418 210.391 185.913C210.146 185.405 210.023 184.815 210.023 184.141C210.023 183.468 210.146 182.875 210.391 182.361C210.639 181.845 210.984 181.443 211.427 181.155C211.872 180.864 212.391 180.719 212.984 180.719C213.326 180.719 213.664 180.776 213.998 180.89C214.332 181.004 214.636 181.189 214.909 181.446C215.183 181.7 215.401 182.036 215.564 182.456C215.727 182.875 215.808 183.391 215.808 184.004V184.432H210.742V183.559H214.781C214.781 183.189 214.707 182.858 214.559 182.567C214.413 182.276 214.205 182.046 213.934 181.878C213.666 181.71 213.349 181.626 212.984 181.626C212.582 181.626 212.234 181.725 211.94 181.925C211.649 182.122 211.425 182.379 211.268 182.695C211.111 183.012 211.033 183.351 211.033 183.714V184.295C211.033 184.792 211.119 185.212 211.29 185.558C211.464 185.9 211.705 186.161 212.013 186.341C212.321 186.517 212.679 186.606 213.087 186.606C213.352 186.606 213.592 186.569 213.805 186.495C214.022 186.418 214.209 186.303 214.366 186.152C214.523 185.998 214.644 185.807 214.73 185.579L215.705 185.853C215.602 186.184 215.43 186.475 215.187 186.726C214.945 186.974 214.646 187.168 214.289 187.308C213.932 187.444 213.532 187.513 213.087 187.513ZM220.014 187.513C219.398 187.513 218.867 187.367 218.422 187.076C217.977 186.786 217.635 186.385 217.395 185.874C217.156 185.364 217.036 184.78 217.036 184.124C217.036 183.457 217.158 182.868 217.404 182.357C217.652 181.844 217.997 181.443 218.439 181.155C218.884 180.864 219.403 180.719 219.997 180.719C220.459 180.719 220.875 180.804 221.246 180.975C221.617 181.146 221.921 181.386 222.157 181.694C222.394 182.002 222.541 182.361 222.598 182.772H221.588C221.511 182.473 221.34 182.207 221.075 181.976C220.812 181.743 220.459 181.626 220.014 181.626C219.62 181.626 219.275 181.728 218.978 181.934C218.684 182.136 218.455 182.423 218.289 182.794C218.127 183.162 218.046 183.594 218.046 184.09C218.046 184.598 218.125 185.04 218.285 185.416C218.448 185.793 218.676 186.085 218.97 186.293C219.266 186.502 219.614 186.606 220.014 186.606C220.276 186.606 220.514 186.56 220.728 186.469C220.942 186.378 221.123 186.246 221.272 186.075C221.42 185.904 221.525 185.699 221.588 185.459H222.598C222.541 185.847 222.4 186.197 222.174 186.507C221.952 186.815 221.657 187.061 221.289 187.243C220.924 187.423 220.499 187.513 220.014 187.513ZM226.932 180.804V181.66H223.526V180.804H226.932ZM224.519 179.23H225.529V185.493C225.529 185.779 225.57 185.993 225.653 186.135C225.738 186.275 225.847 186.369 225.978 186.418C226.112 186.463 226.253 186.486 226.402 186.486C226.513 186.486 226.604 186.48 226.675 186.469C226.747 186.455 226.804 186.443 226.847 186.435L227.052 187.342C226.984 187.367 226.888 187.393 226.765 187.419C226.643 187.447 226.487 187.462 226.299 187.462C226.014 187.462 225.734 187.4 225.46 187.278C225.189 187.155 224.964 186.968 224.784 186.717C224.607 186.466 224.519 186.149 224.519 185.767V179.23ZM232.989 182.276L232.081 182.533C232.024 182.381 231.94 182.235 231.829 182.092C231.721 181.946 231.572 181.827 231.384 181.733C231.196 181.638 230.955 181.591 230.661 181.591C230.259 181.591 229.924 181.684 229.655 181.869C229.39 182.052 229.258 182.284 229.258 182.567C229.258 182.818 229.349 183.016 229.531 183.162C229.714 183.307 229.999 183.428 230.387 183.525L231.363 183.765C231.95 183.907 232.388 184.126 232.676 184.419C232.964 184.71 233.108 185.086 233.108 185.545C233.108 185.921 233 186.258 232.783 186.554C232.569 186.851 232.27 187.085 231.885 187.256C231.5 187.427 231.052 187.513 230.541 187.513C229.871 187.513 229.316 187.367 228.877 187.076C228.438 186.786 228.159 186.361 228.042 185.801L229.001 185.562C229.092 185.916 229.265 186.181 229.519 186.358C229.775 186.535 230.11 186.623 230.524 186.623C230.995 186.623 231.368 186.523 231.645 186.323C231.925 186.121 232.064 185.878 232.064 185.596C232.064 185.368 231.984 185.177 231.825 185.023C231.665 184.866 231.42 184.749 231.089 184.672L229.993 184.415C229.392 184.273 228.95 184.052 228.667 183.752C228.388 183.45 228.248 183.072 228.248 182.618C228.248 182.247 228.352 181.919 228.56 181.634C228.771 181.349 229.058 181.125 229.42 180.962C229.785 180.8 230.199 180.719 230.661 180.719C231.311 180.719 231.822 180.861 232.193 181.146C232.566 181.432 232.832 181.808 232.989 182.276Z" fill="white" fill-opacity="0.4"/>
<path d="M256.648 182.995C256.648 183.919 256.482 184.718 256.148 185.391C255.814 186.064 255.356 186.583 254.774 186.948C254.193 187.313 253.528 187.496 252.781 187.496C252.033 187.496 251.369 187.313 250.787 186.948C250.205 186.583 249.747 186.064 249.413 185.391C249.08 184.718 248.913 183.919 248.913 182.995C248.913 182.071 249.08 181.272 249.413 180.599C249.747 179.926 250.205 179.406 250.787 179.041C251.369 178.676 252.033 178.494 252.781 178.494C253.528 178.494 254.193 178.676 254.774 179.041C255.356 179.406 255.814 179.926 256.148 180.599C256.482 181.272 256.648 182.071 256.648 182.995ZM255.622 182.995C255.622 182.236 255.495 181.596 255.241 181.074C254.99 180.552 254.649 180.157 254.218 179.888C253.79 179.62 253.311 179.486 252.781 179.486C252.25 179.486 251.769 179.62 251.339 179.888C250.911 180.157 250.57 180.552 250.316 181.074C250.065 181.596 249.94 182.236 249.94 182.995C249.94 183.753 250.065 184.394 250.316 184.916C250.57 185.438 250.911 185.833 251.339 186.101C251.769 186.369 252.25 186.503 252.781 186.503C253.311 186.503 253.79 186.369 254.218 186.101C254.649 185.833 254.99 185.438 255.241 184.916C255.495 184.394 255.622 183.753 255.622 182.995ZM258.296 189.84V180.804H259.271V181.848H259.391C259.465 181.734 259.568 181.588 259.699 181.412C259.833 181.232 260.024 181.072 260.272 180.932C260.523 180.79 260.863 180.719 261.291 180.719C261.844 180.719 262.332 180.857 262.754 181.134C263.176 181.41 263.506 181.802 263.742 182.31C263.979 182.818 264.097 183.417 264.097 184.107C264.097 184.803 263.979 185.406 263.742 185.917C263.506 186.425 263.178 186.818 262.758 187.098C262.339 187.375 261.855 187.513 261.308 187.513C260.886 187.513 260.548 187.443 260.294 187.303C260.04 187.161 259.845 186.999 259.708 186.82C259.571 186.637 259.465 186.486 259.391 186.366H259.305V189.84H258.296ZM259.288 184.09C259.288 184.586 259.361 185.024 259.507 185.404C259.652 185.78 259.864 186.075 260.144 186.289C260.424 186.5 260.766 186.606 261.171 186.606C261.593 186.606 261.945 186.495 262.228 186.272C262.513 186.047 262.727 185.744 262.869 185.365C263.015 184.983 263.088 184.558 263.088 184.09C263.088 183.628 263.016 183.211 262.874 182.841C262.734 182.467 262.521 182.172 262.236 181.955C261.954 181.735 261.599 181.626 261.171 181.626C260.76 181.626 260.415 181.73 260.135 181.938C259.856 182.143 259.645 182.431 259.502 182.802C259.36 183.17 259.288 183.599 259.288 184.09ZM268.393 187.513C267.76 187.513 267.214 187.373 266.754 187.094C266.298 186.811 265.946 186.418 265.698 185.913C265.452 185.405 265.33 184.815 265.33 184.141C265.33 183.468 265.452 182.875 265.698 182.361C265.946 181.845 266.291 181.443 266.733 181.155C267.178 180.864 267.697 180.719 268.29 180.719C268.633 180.719 268.971 180.776 269.304 180.89C269.638 181.004 269.942 181.189 270.216 181.446C270.49 181.7 270.708 182.036 270.87 182.456C271.033 182.875 271.114 183.391 271.114 184.004V184.432H266.048V183.559H270.087C270.087 183.189 270.013 182.858 269.865 182.567C269.719 182.276 269.511 182.046 269.24 181.878C268.972 181.71 268.656 181.626 268.29 181.626C267.888 181.626 267.54 181.725 267.246 181.925C266.956 182.122 266.732 182.379 266.575 182.695C266.418 183.012 266.339 183.351 266.339 183.714V184.295C266.339 184.792 266.425 185.212 266.596 185.558C266.77 185.9 267.011 186.161 267.319 186.341C267.627 186.517 267.985 186.606 268.393 186.606C268.658 186.606 268.898 186.569 269.112 186.495C269.329 186.418 269.516 186.303 269.672 186.152C269.829 185.998 269.951 185.807 270.036 185.579L271.012 185.853C270.909 186.184 270.736 186.475 270.494 186.726C270.251 186.974 269.952 187.168 269.595 187.308C269.239 187.444 268.838 187.513 268.393 187.513ZM272.65 187.376V180.804H273.626V181.797H273.694C273.814 181.472 274.031 181.208 274.345 181.005C274.658 180.803 275.012 180.701 275.406 180.701C275.48 180.701 275.573 180.703 275.684 180.706C275.795 180.709 275.879 180.713 275.936 180.719V181.745C275.902 181.737 275.824 181.724 275.701 181.707C275.581 181.687 275.454 181.677 275.32 181.677C275.001 181.677 274.715 181.744 274.464 181.878C274.216 182.009 274.019 182.192 273.874 182.426C273.731 182.657 273.66 182.921 273.66 183.217V187.376H272.65ZM279.415 187.513C278.867 187.513 278.384 187.375 277.964 187.098C277.545 186.818 277.217 186.425 276.98 185.917C276.743 185.406 276.625 184.803 276.625 184.107C276.625 183.417 276.743 182.818 276.98 182.31C277.217 181.802 277.546 181.41 277.969 181.134C278.391 180.857 278.878 180.719 279.432 180.719C279.86 180.719 280.198 180.79 280.446 180.932C280.697 181.072 280.888 181.232 281.019 181.412C281.153 181.588 281.257 181.734 281.332 181.848H281.417V180.804H282.427V187.376H281.451V186.366H281.332C281.257 186.486 281.152 186.637 281.015 186.82C280.878 186.999 280.683 187.161 280.429 187.303C280.175 187.443 279.837 187.513 279.415 187.513ZM279.552 186.606C279.957 186.606 280.299 186.5 280.579 186.289C280.858 186.075 281.071 185.78 281.216 185.404C281.362 185.024 281.434 184.586 281.434 184.09C281.434 183.599 281.363 183.17 281.22 182.802C281.078 182.431 280.867 182.143 280.587 181.938C280.308 181.73 279.962 181.626 279.552 181.626C279.124 181.626 278.767 181.735 278.482 181.955C278.2 182.172 277.987 182.467 277.845 182.841C277.705 183.211 277.635 183.628 277.635 184.09C277.635 184.558 277.706 184.983 277.849 185.365C277.994 185.744 278.208 186.047 278.491 186.272C278.776 186.495 279.13 186.606 279.552 186.606ZM287.274 180.804V181.66H283.869V180.804H287.274ZM284.861 179.23H285.871V185.493C285.871 185.779 285.912 185.993 285.995 186.135C286.081 186.275 286.189 186.369 286.32 186.418C286.454 186.463 286.596 186.486 286.744 186.486C286.855 186.486 286.946 186.48 287.018 186.469C287.089 186.455 287.146 186.443 287.189 186.435L287.394 187.342C287.326 187.367 287.23 187.393 287.108 187.419C286.985 187.447 286.83 187.462 286.641 187.462C286.356 187.462 286.076 187.4 285.803 187.278C285.532 187.155 285.306 186.968 285.127 186.717C284.95 186.466 284.861 186.149 284.861 185.767V179.23ZM288.793 187.376V180.804H289.803V187.376H288.793ZM289.307 179.709C289.11 179.709 288.94 179.642 288.798 179.508C288.658 179.374 288.588 179.212 288.588 179.024C288.588 178.836 288.658 178.675 288.798 178.541C288.94 178.407 289.11 178.34 289.307 178.34C289.504 178.34 289.672 178.407 289.812 178.541C289.954 178.675 290.026 178.836 290.026 179.024C290.026 179.212 289.954 179.374 289.812 179.508C289.672 179.642 289.504 179.709 289.307 179.709ZM292.662 183.423V187.376H291.653V180.804H292.628V181.831H292.714C292.868 181.497 293.102 181.229 293.415 181.027C293.729 180.821 294.134 180.719 294.63 180.719C295.075 180.719 295.465 180.81 295.799 180.992C296.132 181.172 296.392 181.446 296.577 181.814C296.763 182.179 296.855 182.641 296.855 183.2V187.376H295.846V183.269C295.846 182.752 295.712 182.35 295.443 182.062C295.175 181.771 294.807 181.626 294.34 181.626C294.017 181.626 293.729 181.695 293.475 181.835C293.224 181.975 293.026 182.179 292.881 182.447C292.735 182.715 292.662 183.04 292.662 183.423ZM301.353 189.977C300.865 189.977 300.446 189.915 300.095 189.789C299.744 189.666 299.452 189.504 299.218 189.301C298.987 189.102 298.803 188.888 298.666 188.66L299.471 188.095C299.562 188.215 299.677 188.351 299.817 188.506C299.957 188.662 300.148 188.798 300.39 188.912C300.636 189.029 300.957 189.087 301.353 189.087C301.884 189.087 302.322 188.959 302.667 188.702C303.012 188.446 303.184 188.043 303.184 187.496V186.161H303.099C303.025 186.281 302.919 186.429 302.782 186.606C302.648 186.78 302.454 186.935 302.2 187.072C301.949 187.206 301.61 187.273 301.182 187.273C300.651 187.273 300.175 187.148 299.753 186.897C299.334 186.646 299.001 186.281 298.756 185.801C298.514 185.322 298.392 184.74 298.392 184.056C298.392 183.383 298.511 182.796 298.748 182.297C298.984 181.795 299.314 181.407 299.736 181.134C300.158 180.857 300.646 180.719 301.199 180.719C301.627 180.719 301.966 180.79 302.217 180.932C302.471 181.072 302.665 181.232 302.799 181.412C302.936 181.588 303.042 181.734 303.116 181.848H303.219V180.804H304.194V187.564C304.194 188.129 304.066 188.588 303.809 188.942C303.555 189.298 303.213 189.559 302.782 189.725C302.354 189.893 301.878 189.977 301.353 189.977ZM301.319 186.366C301.724 186.366 302.066 186.274 302.346 186.088C302.625 185.903 302.838 185.636 302.983 185.288C303.129 184.94 303.202 184.524 303.202 184.039C303.202 183.565 303.13 183.147 302.988 182.785C302.845 182.423 302.634 182.139 302.354 181.934C302.075 181.728 301.73 181.626 301.319 181.626C300.891 181.626 300.535 181.734 300.249 181.951C299.967 182.168 299.754 182.458 299.612 182.824C299.472 183.189 299.402 183.594 299.402 184.039C299.402 184.495 299.473 184.899 299.616 185.25C299.762 185.598 299.975 185.871 300.258 186.071C300.543 186.268 300.897 186.366 301.319 186.366ZM314.36 180.804C314.309 180.371 314.1 180.034 313.735 179.794C313.37 179.555 312.922 179.435 312.392 179.435C312.004 179.435 311.665 179.498 311.374 179.623C311.086 179.749 310.86 179.921 310.698 180.141C310.538 180.361 310.458 180.61 310.458 180.89C310.458 181.124 310.514 181.325 310.625 181.493C310.739 181.658 310.884 181.797 311.061 181.908C311.238 182.016 311.424 182.106 311.617 182.178C311.811 182.246 311.99 182.302 312.152 182.344L313.042 182.584C313.27 182.644 313.524 182.727 313.804 182.832C314.086 182.938 314.356 183.082 314.612 183.264C314.872 183.444 315.086 183.675 315.254 183.957C315.423 184.24 315.507 184.586 315.507 184.997C315.507 185.471 315.383 185.898 315.134 186.281C314.889 186.663 314.53 186.967 314.056 187.192C313.586 187.417 313.014 187.53 312.341 187.53C311.713 187.53 311.17 187.429 310.71 187.226C310.254 187.024 309.895 186.741 309.632 186.379C309.373 186.017 309.226 185.596 309.192 185.117H310.287C310.315 185.448 310.427 185.722 310.621 185.938C310.817 186.152 311.066 186.312 311.365 186.418C311.667 186.52 311.993 186.572 312.341 186.572C312.746 186.572 313.109 186.506 313.432 186.375C313.754 186.241 314.009 186.055 314.197 185.819C314.386 185.579 314.48 185.299 314.48 184.98C314.48 184.689 314.399 184.452 314.236 184.27C314.073 184.087 313.859 183.939 313.594 183.825C313.329 183.711 313.042 183.611 312.734 183.525L311.656 183.217C310.971 183.02 310.429 182.739 310.03 182.374C309.631 182.009 309.431 181.531 309.431 180.941C309.431 180.45 309.564 180.023 309.829 179.657C310.097 179.289 310.457 179.004 310.907 178.802C311.361 178.596 311.867 178.494 312.426 178.494C312.991 178.494 313.493 178.595 313.932 178.797C314.371 178.997 314.719 179.271 314.976 179.619C315.236 179.967 315.373 180.362 315.387 180.804H314.36ZM319.972 180.804V181.66H316.567V180.804H319.972ZM317.559 179.23H318.569V185.493C318.569 185.779 318.61 185.993 318.693 186.135C318.779 186.275 318.887 186.369 319.018 186.418C319.152 186.463 319.294 186.486 319.442 186.486C319.553 186.486 319.644 186.48 319.716 186.469C319.787 186.455 319.844 186.443 319.887 186.435L320.092 187.342C320.024 187.367 319.928 187.393 319.806 187.419C319.683 187.447 319.528 187.462 319.339 187.462C319.054 187.462 318.774 187.4 318.501 187.278C318.23 187.155 318.004 186.968 317.825 186.717C317.648 186.466 317.559 186.149 317.559 185.767V179.23ZM323.902 187.513C323.355 187.513 322.871 187.375 322.452 187.098C322.033 186.818 321.705 186.425 321.468 185.917C321.231 185.406 321.113 184.803 321.113 184.107C321.113 183.417 321.231 182.818 321.468 182.31C321.705 181.802 322.034 181.41 322.456 181.134C322.878 180.857 323.366 180.719 323.919 180.719C324.347 180.719 324.685 180.79 324.934 180.932C325.185 181.072 325.376 181.232 325.507 181.412C325.641 181.588 325.745 181.734 325.819 181.848H325.905V180.804H326.914V187.376H325.939V186.366H325.819C325.745 186.486 325.639 186.637 325.503 186.82C325.366 186.999 325.17 187.161 324.916 187.303C324.663 187.443 324.325 187.513 323.902 187.513ZM324.039 186.606C324.444 186.606 324.787 186.5 325.066 186.289C325.346 186.075 325.558 185.78 325.704 185.404C325.849 185.024 325.922 184.586 325.922 184.09C325.922 183.599 325.851 183.17 325.708 182.802C325.565 182.431 325.354 182.143 325.075 181.938C324.795 181.73 324.45 181.626 324.039 181.626C323.611 181.626 323.255 181.735 322.97 181.955C322.687 182.172 322.475 182.467 322.332 182.841C322.192 183.211 322.122 183.628 322.122 184.09C322.122 184.558 322.194 184.983 322.336 185.365C322.482 185.744 322.696 186.047 322.978 186.272C323.263 186.495 323.617 186.606 324.039 186.606ZM331.762 180.804V181.66H328.356V180.804H331.762ZM329.349 179.23H330.359V185.493C330.359 185.779 330.4 185.993 330.483 186.135C330.568 186.275 330.677 186.369 330.808 186.418C330.942 186.463 331.083 186.486 331.232 186.486C331.343 186.486 331.434 186.48 331.505 186.469C331.577 186.455 331.634 186.443 331.677 186.435L331.882 187.342C331.813 187.367 331.718 187.393 331.595 187.419C331.473 187.447 331.317 187.462 331.129 187.462C330.844 187.462 330.564 187.4 330.29 187.278C330.019 187.155 329.794 186.968 329.614 186.717C329.437 186.466 329.349 186.149 329.349 185.767V179.23ZM337.423 184.689V180.804H338.432V187.376H337.423V186.264H337.354C337.2 186.597 336.961 186.881 336.635 187.115C336.31 187.346 335.9 187.462 335.403 187.462C334.992 187.462 334.627 187.372 334.308 187.192C333.988 187.009 333.737 186.736 333.555 186.371C333.372 186.003 333.281 185.539 333.281 184.98V180.804H334.291V184.912C334.291 185.391 334.425 185.773 334.693 186.058C334.964 186.343 335.309 186.486 335.728 186.486C335.979 186.486 336.235 186.422 336.494 186.293C336.757 186.165 336.976 185.968 337.153 185.703C337.333 185.438 337.423 185.1 337.423 184.689ZM344.937 182.276L344.03 182.533C343.973 182.381 343.889 182.235 343.777 182.092C343.669 181.946 343.521 181.827 343.332 181.733C343.144 181.638 342.903 181.591 342.609 181.591C342.207 181.591 341.872 181.684 341.604 181.869C341.339 182.052 341.206 182.284 341.206 182.567C341.206 182.818 341.297 183.016 341.48 183.162C341.662 183.307 341.948 183.428 342.336 183.525L343.311 183.765C343.899 183.907 344.337 184.126 344.625 184.419C344.913 184.71 345.057 185.086 345.057 185.545C345.057 185.921 344.948 186.258 344.732 186.554C344.518 186.851 344.218 187.085 343.833 187.256C343.448 187.427 343 187.513 342.49 187.513C341.819 187.513 341.264 187.367 340.825 187.076C340.386 186.786 340.108 186.361 339.991 185.801L340.949 185.562C341.041 185.916 341.213 186.181 341.467 186.358C341.724 186.535 342.059 186.623 342.472 186.623C342.943 186.623 343.317 186.523 343.593 186.323C343.873 186.121 344.013 185.878 344.013 185.596C344.013 185.368 343.933 185.177 343.773 185.023C343.613 184.866 343.368 184.749 343.037 184.672L341.942 184.415C341.34 184.273 340.898 184.052 340.616 183.752C340.336 183.45 340.196 183.072 340.196 182.618C340.196 182.247 340.3 181.919 340.509 181.634C340.72 181.349 341.006 181.125 341.369 180.962C341.734 180.8 342.147 180.719 342.609 180.719C343.26 180.719 343.77 180.861 344.141 181.146C344.515 181.432 344.78 181.808 344.937 182.276Z" fill="white" fill-opacity="0.4"/>
<path d="M362.36 175.79V190.2H361.504V175.79H362.36Z" fill="white" fill-opacity="0.2"/>
<path d="M390.642 183.376C390.642 184.802 389.486 185.958 388.061 185.958C386.635 185.958 385.479 184.802 385.479 183.376C385.479 181.95 386.635 180.794 388.061 180.794C389.486 180.794 390.642 181.95 390.642 183.376Z" fill="#C6C7F8"/>
<path d="M395.444 180.672V179.865H401.077V180.672H398.715V187.376H397.806V180.672H395.444ZM403.229 183.987V187.376H402.364V179.865H403.229V182.623H403.302C403.434 182.332 403.632 182.101 403.897 181.93C404.163 181.756 404.518 181.67 404.96 181.67C405.344 181.67 405.68 181.747 405.969 181.901C406.257 182.052 406.481 182.286 406.64 182.601C406.801 182.914 406.882 183.313 406.882 183.797V187.376H406.016V183.855C406.016 183.408 405.9 183.062 405.668 182.817C405.438 182.571 405.119 182.447 404.711 182.447C404.427 182.447 404.173 182.507 403.948 182.627C403.725 182.747 403.549 182.921 403.42 183.151C403.293 183.381 403.229 183.66 403.229 183.987ZM408.465 187.376V181.743H409.331V187.376H408.465ZM408.905 180.804C408.737 180.804 408.591 180.747 408.469 180.632C408.349 180.517 408.289 180.379 408.289 180.217C408.289 180.056 408.349 179.918 408.469 179.803C408.591 179.688 408.737 179.631 408.905 179.631C409.074 179.631 409.218 179.688 409.338 179.803C409.46 179.918 409.521 180.056 409.521 180.217C409.521 180.379 409.46 180.517 409.338 180.632C409.218 180.747 409.074 180.804 408.905 180.804ZM414.906 183.004L414.128 183.225C414.08 183.095 414.007 182.969 413.912 182.847C413.819 182.722 413.692 182.619 413.531 182.539C413.369 182.458 413.163 182.418 412.911 182.418C412.566 182.418 412.279 182.497 412.049 182.656C411.822 182.813 411.708 183.012 411.708 183.254C411.708 183.469 411.786 183.639 411.943 183.764C412.099 183.888 412.344 183.992 412.676 184.075L413.512 184.281C414.016 184.403 414.391 184.59 414.638 184.842C414.885 185.091 415.009 185.413 415.009 185.806C415.009 186.129 414.916 186.418 414.73 186.672C414.547 186.926 414.29 187.127 413.96 187.273C413.63 187.42 413.246 187.493 412.808 187.493C412.234 187.493 411.758 187.369 411.382 187.119C411.005 186.87 410.767 186.506 410.666 186.026L411.488 185.821C411.566 186.124 411.714 186.352 411.932 186.503C412.152 186.655 412.439 186.731 412.794 186.731C413.197 186.731 413.517 186.645 413.754 186.474C413.994 186.3 414.114 186.092 414.114 185.85C414.114 185.655 414.045 185.491 413.908 185.359C413.771 185.224 413.561 185.124 413.278 185.058L412.339 184.838C411.823 184.716 411.444 184.526 411.202 184.27C410.962 184.011 410.842 183.687 410.842 183.298C410.842 182.98 410.932 182.699 411.11 182.454C411.291 182.21 411.537 182.018 411.847 181.879C412.16 181.739 412.515 181.67 412.911 181.67C413.468 181.67 413.906 181.792 414.224 182.036C414.544 182.281 414.771 182.604 414.906 183.004ZM419.773 189.488C419.627 189.488 419.496 189.476 419.381 189.452C419.266 189.43 419.187 189.408 419.143 189.386L419.363 188.623C419.573 188.677 419.759 188.696 419.92 188.682C420.081 188.667 420.225 188.595 420.349 188.465C420.476 188.338 420.592 188.131 420.698 187.845L420.859 187.405L418.776 181.743H419.715L421.27 186.232H421.328L422.883 181.743H423.822L421.431 188.197C421.323 188.488 421.19 188.729 421.031 188.92C420.872 189.113 420.688 189.256 420.478 189.349C420.27 189.442 420.035 189.488 419.773 189.488ZM427.125 187.493C426.582 187.493 426.114 187.374 425.72 187.134C425.329 186.892 425.027 186.554 424.814 186.122C424.604 185.687 424.499 185.18 424.499 184.603C424.499 184.026 424.604 183.518 424.814 183.078C425.027 182.635 425.323 182.291 425.702 182.044C426.083 181.794 426.528 181.67 427.037 181.67C427.33 181.67 427.62 181.718 427.906 181.816C428.192 181.914 428.452 182.073 428.687 182.293C428.922 182.511 429.109 182.799 429.248 183.159C429.387 183.518 429.457 183.96 429.457 184.486V184.853H425.115V184.105H428.577C428.577 183.787 428.513 183.503 428.386 183.254C428.262 183.004 428.083 182.808 427.851 182.663C427.621 182.519 427.35 182.447 427.037 182.447C426.692 182.447 426.394 182.533 426.142 182.704C425.892 182.872 425.7 183.093 425.566 183.364C425.432 183.635 425.364 183.926 425.364 184.237V184.735C425.364 185.161 425.438 185.522 425.584 185.817C425.733 186.111 425.94 186.334 426.204 186.488C426.468 186.64 426.775 186.716 427.125 186.716C427.352 186.716 427.557 186.684 427.741 186.621C427.927 186.554 428.087 186.457 428.221 186.327C428.356 186.195 428.46 186.031 428.533 185.836L429.369 186.07C429.281 186.354 429.133 186.603 428.925 186.819C428.717 187.031 428.461 187.197 428.155 187.317C427.85 187.435 427.506 187.493 427.125 187.493ZM432.901 187.493C432.431 187.493 432.017 187.375 431.657 187.138C431.298 186.898 431.017 186.561 430.814 186.125C430.611 185.688 430.51 185.171 430.51 184.574C430.51 183.982 430.611 183.469 430.814 183.034C431.017 182.599 431.299 182.262 431.661 182.025C432.023 181.788 432.441 181.67 432.915 181.67C433.282 181.67 433.572 181.731 433.785 181.853C434 181.973 434.164 182.11 434.276 182.264C434.391 182.415 434.48 182.54 434.544 182.638H434.617V181.743H435.483V187.376H434.646V186.51H434.544C434.48 186.613 434.39 186.743 434.272 186.899C434.155 187.053 433.987 187.191 433.77 187.314C433.552 187.433 433.263 187.493 432.901 187.493ZM433.018 186.716C433.365 186.716 433.659 186.625 433.898 186.444C434.138 186.261 434.32 186.008 434.445 185.685C434.569 185.36 434.632 184.985 434.632 184.559C434.632 184.139 434.571 183.771 434.448 183.456C434.326 183.138 434.145 182.891 433.906 182.715C433.666 182.536 433.37 182.447 433.018 182.447C432.651 182.447 432.346 182.541 432.101 182.729C431.859 182.915 431.677 183.168 431.555 183.489C431.435 183.806 431.375 184.163 431.375 184.559C431.375 184.96 431.436 185.325 431.558 185.652C431.683 185.977 431.867 186.237 432.109 186.43C432.353 186.621 432.656 186.716 433.018 186.716ZM437.188 187.376V181.743H438.024V182.594H438.083C438.185 182.315 438.371 182.089 438.64 181.915C438.909 181.742 439.212 181.655 439.55 181.655C439.613 181.655 439.693 181.656 439.788 181.659C439.883 181.661 439.955 181.665 440.004 181.67V182.55C439.975 182.542 439.908 182.531 439.803 182.517C439.7 182.5 439.591 182.491 439.476 182.491C439.202 182.491 438.958 182.549 438.743 182.663C438.53 182.776 438.361 182.932 438.237 183.133C438.114 183.331 438.053 183.557 438.053 183.811V187.376H437.188Z" fill="white"/>
<path d="M474.509 183.376C474.509 184.802 473.353 185.958 471.927 185.958C470.501 185.958 469.345 184.802 469.345 183.376C469.345 181.95 470.501 180.794 471.927 180.794C473.353 180.794 474.509 181.95 474.509 183.376Z" fill="#A8C5DA"/>
<path d="M479.722 187.376V179.865H480.631V186.569H484.122V187.376H479.722ZM487.54 187.493C487.071 187.493 486.657 187.375 486.297 187.138C485.938 186.898 485.657 186.561 485.454 186.125C485.251 185.688 485.149 185.171 485.149 184.574C485.149 183.982 485.251 183.469 485.454 183.034C485.657 182.599 485.939 182.262 486.301 182.025C486.663 181.788 487.081 181.67 487.555 181.67C487.922 181.67 488.212 181.731 488.424 181.853C488.639 181.973 488.803 182.11 488.916 182.264C489.031 182.415 489.12 182.54 489.183 182.638H489.257V181.743H490.122V187.376H489.286V186.51H489.183C489.12 186.613 489.029 186.743 488.912 186.899C488.795 187.053 488.627 187.191 488.41 187.314C488.192 187.433 487.902 187.493 487.54 187.493ZM487.658 186.716C488.005 186.716 488.298 186.625 488.538 186.444C488.778 186.261 488.96 186.008 489.084 185.685C489.209 185.36 489.271 184.985 489.271 184.559C489.271 184.139 489.21 183.771 489.088 183.456C488.966 183.138 488.785 182.891 488.545 182.715C488.306 182.536 488.01 182.447 487.658 182.447C487.291 182.447 486.985 182.541 486.741 182.729C486.499 182.915 486.317 183.168 486.194 183.489C486.075 183.806 486.015 184.163 486.015 184.559C486.015 184.96 486.076 185.325 486.198 185.652C486.323 185.977 486.506 186.237 486.748 186.43C486.993 186.621 487.296 186.716 487.658 186.716ZM495.818 183.004L495.04 183.225C494.991 183.095 494.919 182.969 494.824 182.847C494.731 182.722 494.604 182.619 494.442 182.539C494.281 182.458 494.074 182.418 493.823 182.418C493.478 182.418 493.191 182.497 492.961 182.656C492.733 182.813 492.62 183.012 492.62 183.254C492.62 183.469 492.698 183.639 492.854 183.764C493.011 183.888 493.255 183.992 493.588 184.075L494.424 184.281C494.928 184.403 495.303 184.59 495.55 184.842C495.797 185.091 495.92 185.413 495.92 185.806C495.92 186.129 495.827 186.418 495.642 186.672C495.458 186.926 495.202 187.127 494.871 187.273C494.541 187.42 494.158 187.493 493.72 187.493C493.145 187.493 492.67 187.369 492.293 187.119C491.917 186.87 491.678 186.506 491.578 186.026L492.4 185.821C492.478 186.124 492.626 186.352 492.843 186.503C493.063 186.655 493.351 186.731 493.705 186.731C494.109 186.731 494.429 186.645 494.666 186.474C494.906 186.3 495.025 186.092 495.025 185.85C495.025 185.655 494.957 185.491 494.82 185.359C494.683 185.224 494.473 185.124 494.189 185.058L493.25 184.838C492.735 184.716 492.356 184.526 492.114 184.27C491.874 184.011 491.754 183.687 491.754 183.298C491.754 182.98 491.843 182.699 492.022 182.454C492.203 182.21 492.449 182.018 492.759 181.879C493.072 181.739 493.427 181.67 493.823 181.67C494.38 181.67 494.818 181.792 495.136 182.036C495.456 182.281 495.683 182.604 495.818 183.004ZM499.673 181.743V182.476H496.754V181.743H499.673ZM497.605 180.393H498.47V185.762C498.47 186.007 498.505 186.19 498.576 186.312C498.65 186.432 498.743 186.513 498.855 186.554C498.97 186.594 499.091 186.613 499.218 186.613C499.314 186.613 499.392 186.608 499.453 186.598C499.514 186.586 499.563 186.576 499.6 186.569L499.776 187.347C499.717 187.369 499.635 187.391 499.53 187.413C499.425 187.437 499.292 187.449 499.13 187.449C498.886 187.449 498.646 187.397 498.411 187.292C498.179 187.186 497.986 187.026 497.832 186.811C497.68 186.596 497.605 186.325 497.605 185.997V180.393ZM504.437 189.488C504.29 189.488 504.159 189.476 504.044 189.452C503.93 189.43 503.85 189.408 503.806 189.386L504.026 188.623C504.236 188.677 504.422 188.696 504.584 188.682C504.745 188.667 504.888 188.595 505.013 188.465C505.14 188.338 505.256 188.131 505.361 187.845L505.522 187.405L503.439 181.743H504.378L505.933 186.232H505.992L507.547 181.743H508.486L506.094 188.197C505.987 188.488 505.854 188.729 505.695 188.92C505.536 189.113 505.351 189.256 505.141 189.349C504.933 189.442 504.698 189.488 504.437 189.488ZM511.788 187.493C511.245 187.493 510.777 187.374 510.383 187.134C509.992 186.892 509.69 186.554 509.478 186.122C509.267 185.687 509.162 185.18 509.162 184.603C509.162 184.026 509.267 183.518 509.478 183.078C509.69 182.635 509.986 182.291 510.365 182.044C510.747 181.794 511.191 181.67 511.7 181.67C511.993 181.67 512.283 181.718 512.569 181.816C512.855 181.914 513.116 182.073 513.35 182.293C513.585 182.511 513.772 182.799 513.911 183.159C514.051 183.518 514.12 183.96 514.12 184.486V184.853H509.778V184.105H513.24C513.24 183.787 513.177 183.503 513.05 183.254C512.925 183.004 512.746 182.808 512.514 182.663C512.284 182.519 512.013 182.447 511.7 182.447C511.355 182.447 511.057 182.533 510.805 182.704C510.556 182.872 510.364 183.093 510.229 183.364C510.095 183.635 510.028 183.926 510.028 184.237V184.735C510.028 185.161 510.101 185.522 510.248 185.817C510.397 186.111 510.603 186.334 510.868 186.488C511.132 186.64 511.438 186.716 511.788 186.716C512.015 186.716 512.221 186.684 512.404 186.621C512.59 186.554 512.75 186.457 512.885 186.327C513.019 186.195 513.123 186.031 513.196 185.836L514.032 186.07C513.944 186.354 513.797 186.603 513.589 186.819C513.381 187.031 513.124 187.197 512.819 187.317C512.513 187.435 512.169 187.493 511.788 187.493ZM517.564 187.493C517.095 187.493 516.68 187.375 516.321 187.138C515.961 186.898 515.68 186.561 515.477 186.125C515.274 185.688 515.173 185.171 515.173 184.574C515.173 183.982 515.274 183.469 515.477 183.034C515.68 182.599 515.963 182.262 516.325 182.025C516.686 181.788 517.104 181.67 517.579 181.67C517.946 181.67 518.235 181.731 518.448 181.853C518.663 181.973 518.827 182.11 518.939 182.264C519.054 182.415 519.144 182.54 519.207 182.638H519.28V181.743H520.146V187.376H519.31V186.51H519.207C519.144 186.613 519.053 186.743 518.936 186.899C518.818 187.053 518.651 187.191 518.433 187.314C518.216 187.433 517.926 187.493 517.564 187.493ZM517.681 186.716C518.029 186.716 518.322 186.625 518.562 186.444C518.801 186.261 518.983 186.008 519.108 185.685C519.233 185.36 519.295 184.985 519.295 184.559C519.295 184.139 519.234 183.771 519.112 183.456C518.99 183.138 518.809 182.891 518.569 182.715C518.329 182.536 518.034 182.447 517.681 182.447C517.315 182.447 517.009 182.541 516.765 182.729C516.523 182.915 516.34 183.168 516.218 183.489C516.098 183.806 516.039 184.163 516.039 184.559C516.039 184.96 516.1 185.325 516.222 185.652C516.347 185.977 516.53 186.237 516.772 186.43C517.016 186.621 517.32 186.716 517.681 186.716ZM521.851 187.376V181.743H522.687V182.594H522.746C522.849 182.315 523.035 182.089 523.304 181.915C523.572 181.742 523.876 181.655 524.213 181.655C524.277 181.655 524.356 181.656 524.451 181.659C524.547 181.661 524.619 181.665 524.668 181.67V182.55C524.638 182.542 524.571 182.531 524.466 182.517C524.363 182.5 524.255 182.491 524.14 182.491C523.866 182.491 523.621 182.549 523.406 182.663C523.194 182.776 523.025 182.932 522.9 183.133C522.778 183.331 522.717 183.557 522.717 183.811V187.376H521.851Z" fill="white"/>
<path d="M75.6384 216.989H76.5626C76.5895 217.243 76.6762 217.458 76.8229 217.634C76.9721 217.808 77.1652 217.94 77.4024 218.031C77.6395 218.119 77.9024 218.163 78.1909 218.163C78.5038 218.163 78.785 218.11 79.0344 218.005C79.2837 217.9 79.4818 217.743 79.6285 217.535C79.7752 217.325 79.8485 217.065 79.8485 216.754C79.8485 216.483 79.7849 216.231 79.6578 215.999C79.5307 215.764 79.3265 215.575 79.0454 215.43C78.7642 215.286 78.3913 215.214 77.9268 215.214H77.3254V214.481L79.2031 212.221V212.163H76.0051V211.356H80.45V212.016L78.4402 214.451V214.51C78.763 214.525 79.0637 214.591 79.3424 214.708C79.6236 214.825 79.8681 214.984 80.0759 215.185C80.2861 215.385 80.45 215.619 80.5673 215.885C80.6847 216.152 80.7433 216.441 80.7433 216.754C80.7433 217.182 80.6333 217.564 80.4133 217.899C80.1957 218.231 79.8937 218.493 79.5074 218.683C79.1236 218.874 78.6798 218.969 78.1762 218.969C77.7312 218.969 77.3217 218.891 76.9476 218.735C76.5736 218.578 76.2692 218.352 76.0345 218.056C75.7998 217.76 75.6677 217.405 75.6384 216.989ZM84.6903 218.969C84.1378 218.969 83.6671 218.819 83.2784 218.518C82.8897 218.215 82.5926 217.776 82.3872 217.202C82.1819 216.625 82.0792 215.928 82.0792 215.111C82.0792 214.3 82.1819 213.606 82.3872 213.032C82.5951 212.455 82.8933 212.015 83.2821 211.712C83.6733 211.406 84.1427 211.253 84.6903 211.253C85.238 211.253 85.7062 211.406 86.0949 211.712C86.4861 212.015 86.7844 212.455 86.9898 213.032C87.1976 213.606 87.3015 214.3 87.3015 215.111C87.3015 215.928 87.1988 216.625 86.9934 217.202C86.7881 217.776 86.491 218.215 86.1023 218.518C85.7135 218.819 85.2429 218.969 84.6903 218.969ZM84.6903 218.163C85.238 218.163 85.6634 217.899 85.9666 217.37C86.2697 216.842 86.4213 216.089 86.4213 215.111C86.4213 214.461 86.3516 213.907 86.2123 213.45C86.0754 212.993 85.8773 212.644 85.6182 212.405C85.3615 212.165 85.0522 212.045 84.6903 212.045C84.1476 212.045 83.7234 212.313 83.4178 212.849C83.1122 213.382 82.9593 214.136 82.9593 215.111C82.9593 215.762 83.0278 216.314 83.1647 216.769C83.3016 217.224 83.4984 217.57 83.7552 217.807C84.0143 218.044 84.326 218.163 84.6903 218.163ZM88.8271 218.867V211.356H89.7366V215.082H89.8246L93.1986 211.356H94.3868L91.2329 214.745L94.3868 218.867H93.2866L90.6755 215.375L89.7366 216.432V218.867H88.8271Z" fill="white" fill-opacity="0.4"/>
<path d="M75.9877 271.364V270.704L78.4668 267.99C78.7578 267.672 78.9974 267.396 79.1856 267.161C79.3739 266.924 79.5133 266.701 79.6037 266.494C79.6966 266.283 79.7431 266.063 79.7431 265.833C79.7431 265.569 79.6795 265.341 79.5524 265.148C79.4277 264.954 79.2565 264.805 79.0389 264.7C78.8213 264.595 78.5769 264.542 78.3055 264.542C78.017 264.542 77.7651 264.602 77.55 264.722C77.3373 264.84 77.1723 265.005 77.0549 265.217C76.94 265.43 76.8825 265.679 76.8825 265.965H76.017C76.017 265.525 76.1185 265.139 76.3214 264.807C76.5244 264.474 76.8006 264.215 77.1503 264.029C77.5023 263.843 77.8972 263.75 78.3348 263.75C78.7749 263.75 79.1649 263.843 79.5047 264.029C79.8445 264.215 80.111 264.465 80.3042 264.781C80.4973 265.096 80.5939 265.447 80.5939 265.833C80.5939 266.11 80.5438 266.38 80.4435 266.644C80.3457 266.905 80.1746 267.198 79.9301 267.52C79.6881 267.841 79.3519 268.232 78.9216 268.694L77.2346 270.498V270.557H80.7259V271.364H75.9877ZM84.6903 271.466C84.1378 271.466 83.6671 271.316 83.2784 271.015C82.8897 270.712 82.5926 270.273 82.3872 269.699C82.1819 269.122 82.0792 268.425 82.0792 267.608C82.0792 266.797 82.1819 266.104 82.3872 265.529C82.5951 264.952 82.8933 264.512 83.2821 264.209C83.6733 263.903 84.1427 263.75 84.6903 263.75C85.238 263.75 85.7062 263.903 86.0949 264.209C86.4861 264.512 86.7844 264.952 86.9898 265.529C87.1976 266.104 87.3015 266.797 87.3015 267.608C87.3015 268.425 87.1988 269.122 86.9934 269.699C86.7881 270.273 86.491 270.712 86.1023 271.015C85.7135 271.316 85.2429 271.466 84.6903 271.466ZM84.6903 270.66C85.238 270.66 85.6634 270.396 85.9666 269.867C86.2697 269.339 86.4213 268.586 86.4213 267.608C86.4213 266.958 86.3516 266.404 86.2123 265.947C86.0754 265.49 85.8773 265.141 85.6182 264.902C85.3615 264.662 85.0522 264.542 84.6903 264.542C84.1476 264.542 83.7234 264.81 83.4178 265.346C83.1122 265.879 82.9593 266.633 82.9593 267.608C82.9593 268.259 83.0278 268.811 83.1647 269.266C83.3016 269.721 83.4984 270.067 83.7552 270.304C84.0143 270.541 84.326 270.66 84.6903 270.66ZM88.8271 271.364V263.853H89.7366V267.579H89.8246L93.1986 263.853H94.3868L91.2329 267.242L94.3868 271.364H93.2866L90.6755 267.872L89.7366 268.929V271.364H88.8271Z" fill="white" fill-opacity="0.4"/>
<path d="M80.0878 316.35V323.861H79.1783V317.67H79.1196C79.0854 317.739 78.9974 317.817 78.8556 317.905C78.7138 317.991 78.5304 318.066 78.3055 318.132C78.0805 318.196 77.8238 318.228 77.5353 318.228V317.465C77.8263 317.465 78.0781 317.412 78.2908 317.307C78.5035 317.202 78.6808 317.079 78.8226 316.937C78.9668 316.795 79.0756 316.667 79.149 316.552C79.2248 316.437 79.2688 316.37 79.281 316.35H80.0878ZM84.6903 323.964C84.1378 323.964 83.6671 323.813 83.2784 323.512C82.8897 323.209 82.5926 322.77 82.3872 322.196C82.1819 321.619 82.0792 320.922 82.0792 320.105C82.0792 319.294 82.1819 318.601 82.3872 318.026C82.5951 317.449 82.8933 317.009 83.2821 316.706C83.6733 316.4 84.1427 316.247 84.6903 316.247C85.238 316.247 85.7062 316.4 86.0949 316.706C86.4861 317.009 86.7844 317.449 86.9898 318.026C87.1976 318.601 87.3015 319.294 87.3015 320.105C87.3015 320.922 87.1988 321.619 86.9934 322.196C86.7881 322.77 86.491 323.209 86.1023 323.512C85.7135 323.813 85.2429 323.964 84.6903 323.964ZM84.6903 323.157C85.238 323.157 85.6634 322.893 85.9666 322.365C86.2697 321.836 86.4213 321.083 86.4213 320.105C86.4213 319.455 86.3516 318.901 86.2123 318.444C86.0754 317.987 85.8773 317.639 85.6182 317.399C85.3615 317.159 85.0522 317.04 84.6903 317.04C84.1476 317.04 83.7234 317.307 83.4178 317.843C83.1122 318.376 82.9593 319.13 82.9593 320.105C82.9593 320.756 83.0278 321.308 83.1647 321.763C83.3016 322.218 83.4984 322.564 83.7552 322.801C84.0143 323.038 84.326 323.157 84.6903 323.157ZM88.8271 323.861V316.35H89.7366V320.076H89.8246L93.1986 316.35H94.3868L91.2329 319.739L94.3868 323.861H93.2866L90.6755 320.37L89.7366 321.426V323.861H88.8271Z" fill="white" fill-opacity="0.4"/>
<path d="M91.4273 376.46C90.8747 376.46 90.4041 376.31 90.0153 376.009C89.6266 375.706 89.3295 375.267 89.1242 374.692C88.9188 374.115 88.8161 373.419 88.8161 372.602C88.8161 371.79 88.9188 371.097 89.1242 370.523C89.332 369.946 89.6303 369.506 90.019 369.202C90.4102 368.897 90.8796 368.744 91.4273 368.744C91.9749 368.744 92.4431 368.897 92.8319 369.202C93.2231 369.506 93.5213 369.946 93.7267 370.523C93.9345 371.097 94.0384 371.79 94.0384 372.602C94.0384 373.419 93.9357 374.115 93.7304 374.692C93.525 375.267 93.2279 375.706 92.8392 376.009C92.4505 376.31 91.9798 376.46 91.4273 376.46ZM91.4273 375.653C91.9749 375.653 92.4003 375.389 92.7035 374.861C93.0067 374.333 93.1583 373.58 93.1583 372.602C93.1583 371.952 93.0886 371.398 92.9492 370.941C92.8123 370.484 92.6143 370.135 92.3551 369.896C92.0984 369.656 91.7891 369.536 91.4273 369.536C90.8845 369.536 90.4603 369.804 90.1547 370.339C89.8491 370.872 89.6963 371.627 89.6963 372.602C89.6963 373.252 89.7647 373.805 89.9016 374.26C90.0386 374.714 90.2354 375.06 90.4921 375.298C90.7513 375.535 91.063 375.653 91.4273 375.653Z" fill="white" fill-opacity="0.4"/>
<path d="M133.653 405.599H134.562V410.968C134.562 411.447 134.474 411.854 134.298 412.189C134.122 412.524 133.874 412.778 133.554 412.952C133.234 413.125 132.856 413.212 132.421 413.212C132.01 413.212 131.644 413.137 131.324 412.988C131.004 412.837 130.752 412.622 130.569 412.343C130.385 412.064 130.294 411.733 130.294 411.349H131.188C131.188 411.562 131.241 411.748 131.346 411.906C131.454 412.063 131.6 412.185 131.786 412.273C131.972 412.361 132.184 412.405 132.421 412.405C132.682 412.405 132.905 412.35 133.088 412.24C133.272 412.13 133.411 411.969 133.506 411.756C133.604 411.541 133.653 411.278 133.653 410.968V405.599ZM138.395 413.227C137.925 413.227 137.511 413.108 137.152 412.871C136.792 412.631 136.511 412.294 136.308 411.859C136.105 411.421 136.004 410.904 136.004 410.308C136.004 409.716 136.105 409.202 136.308 408.767C136.511 408.332 136.793 407.996 137.155 407.759C137.517 407.522 137.935 407.403 138.41 407.403C138.776 407.403 139.066 407.464 139.279 407.586C139.494 407.706 139.658 407.843 139.77 407.997C139.885 408.149 139.974 408.273 140.038 408.371H140.111V407.476H140.977V413.109H140.141V412.244H140.038C139.974 412.347 139.884 412.476 139.766 412.633C139.649 412.787 139.482 412.925 139.264 413.047C139.046 413.167 138.757 413.227 138.395 413.227ZM138.512 412.449C138.859 412.449 139.153 412.359 139.392 412.178C139.632 411.994 139.814 411.741 139.939 411.419C140.063 411.094 140.126 410.718 140.126 410.293C140.126 409.872 140.065 409.504 139.942 409.189C139.82 408.871 139.639 408.624 139.4 408.448C139.16 408.27 138.864 408.18 138.512 408.18C138.145 408.18 137.84 408.275 137.595 408.463C137.353 408.649 137.171 408.902 137.049 409.222C136.929 409.54 136.869 409.897 136.869 410.293C136.869 410.694 136.93 411.058 137.053 411.386C137.177 411.711 137.361 411.97 137.603 412.163C137.847 412.354 138.15 412.449 138.512 412.449ZM143.547 409.721V413.109H142.682V407.476H143.518V408.356H143.591C143.724 408.07 143.924 407.841 144.193 407.667C144.462 407.491 144.809 407.403 145.234 407.403C145.616 407.403 145.95 407.481 146.236 407.638C146.522 407.792 146.744 408.026 146.903 408.342C147.062 408.655 147.141 409.051 147.141 409.53V413.109H146.276V409.589C146.276 409.146 146.161 408.801 145.931 408.555C145.701 408.305 145.386 408.18 144.985 408.18C144.709 408.18 144.462 408.24 144.244 408.36C144.029 408.48 143.859 408.655 143.735 408.885C143.61 409.114 143.547 409.393 143.547 409.721Z" fill="white" fill-opacity="0.4"/>
<path d="M191.723 413.109V405.599H196.227V406.405H192.633V408.943H195.889V409.75H192.633V413.109H191.723ZM199.616 413.227C199.073 413.227 198.605 413.107 198.211 412.867C197.82 412.625 197.518 412.288 197.305 411.855C197.095 411.42 196.99 410.914 196.99 410.337C196.99 409.76 197.095 409.251 197.305 408.811C197.518 408.369 197.814 408.024 198.193 407.777C198.574 407.528 199.019 407.403 199.527 407.403C199.821 407.403 200.111 407.452 200.397 407.55C200.683 407.647 200.943 407.806 201.178 408.026C201.413 408.244 201.6 408.533 201.739 408.892C201.878 409.251 201.948 409.694 201.948 410.219V410.586H197.606V409.838H201.068C201.068 409.52 201.004 409.237 200.877 408.987C200.752 408.738 200.574 408.541 200.342 408.397C200.112 408.253 199.84 408.18 199.527 408.18C199.183 408.18 198.884 408.266 198.633 408.437C198.383 408.606 198.191 408.826 198.057 409.097C197.922 409.369 197.855 409.66 197.855 409.97V410.469C197.855 410.894 197.929 411.255 198.075 411.551C198.224 411.844 198.431 412.068 198.695 412.222C198.959 412.373 199.266 412.449 199.616 412.449C199.843 412.449 200.048 412.417 200.232 412.354C200.417 412.288 200.578 412.19 200.712 412.061C200.847 411.928 200.95 411.765 201.024 411.569L201.86 411.804C201.772 412.087 201.624 412.337 201.416 412.552C201.208 412.765 200.952 412.931 200.646 413.051C200.34 413.168 199.997 413.227 199.616 413.227ZM203.382 413.109V405.599H204.247V408.371H204.321C204.384 408.273 204.472 408.149 204.585 407.997C204.7 407.843 204.863 407.706 205.076 407.586C205.291 407.464 205.582 407.403 205.949 407.403C206.423 407.403 206.841 407.522 207.203 407.759C207.565 407.996 207.847 408.332 208.05 408.767C208.253 409.202 208.355 409.716 208.355 410.308C208.355 410.904 208.253 411.421 208.05 411.859C207.847 412.294 207.566 412.631 207.207 412.871C206.848 413.108 206.433 413.227 205.964 413.227C205.602 413.227 205.312 413.167 205.095 413.047C204.877 412.925 204.709 412.787 204.592 412.633C204.475 412.476 204.384 412.347 204.321 412.244H204.218V413.109H203.382ZM204.233 410.293C204.233 410.718 204.295 411.094 204.42 411.419C204.544 411.741 204.727 411.994 204.966 412.178C205.206 412.359 205.499 412.449 205.846 412.449C206.208 412.449 206.51 412.354 206.752 412.163C206.997 411.97 207.18 411.711 207.302 411.386C207.427 411.058 207.489 410.694 207.489 410.293C207.489 409.897 207.428 409.54 207.306 409.222C207.186 408.902 207.004 408.649 206.76 408.463C206.517 408.275 206.213 408.18 205.846 408.18C205.494 408.18 205.198 408.27 204.959 408.448C204.719 408.624 204.538 408.871 204.416 409.189C204.294 409.504 204.233 409.872 204.233 410.293Z" fill="white" fill-opacity="0.4"/>
<path d="M251.988 405.599H253.074L255.626 411.833H255.714L258.267 405.599H259.352V413.109H258.501V407.403H258.428L256.081 413.109H255.259L252.912 407.403H252.839V413.109H251.988V405.599ZM263.186 413.227C262.716 413.227 262.302 413.108 261.942 412.871C261.583 412.631 261.302 412.294 261.099 411.859C260.896 411.421 260.794 410.904 260.794 410.308C260.794 409.716 260.896 409.202 261.099 408.767C261.302 408.332 261.584 407.996 261.946 407.759C262.308 407.522 262.726 407.403 263.2 407.403C263.567 407.403 263.857 407.464 264.069 407.586C264.285 407.706 264.448 407.843 264.561 407.997C264.676 408.149 264.765 408.273 264.829 408.371H264.902V407.476H265.767V413.109H264.931V412.244H264.829C264.765 412.347 264.675 412.476 264.557 412.633C264.44 412.787 264.272 412.925 264.055 413.047C263.837 413.167 263.547 413.227 263.186 413.227ZM263.303 412.449C263.65 412.449 263.943 412.359 264.183 412.178C264.423 411.994 264.605 411.741 264.73 411.419C264.854 411.094 264.917 410.718 264.917 410.293C264.917 409.872 264.855 409.504 264.733 409.189C264.611 408.871 264.43 408.624 264.19 408.448C263.951 408.27 263.655 408.18 263.303 408.18C262.936 408.18 262.631 408.275 262.386 408.463C262.144 408.649 261.962 408.902 261.84 409.222C261.72 409.54 261.66 409.897 261.66 410.293C261.66 410.694 261.721 411.058 261.843 411.386C261.968 411.711 262.151 411.97 262.393 412.163C262.638 412.354 262.941 412.449 263.303 412.449ZM267.473 413.109V407.476H268.309V408.327H268.368C268.47 408.048 268.656 407.822 268.925 407.649C269.194 407.475 269.497 407.388 269.834 407.388C269.898 407.388 269.978 407.39 270.073 407.392C270.168 407.394 270.24 407.398 270.289 407.403V408.283C270.26 408.276 270.193 408.265 270.088 408.25C269.985 408.233 269.876 408.224 269.761 408.224C269.487 408.224 269.243 408.282 269.028 408.397C268.815 408.509 268.646 408.666 268.522 408.866C268.399 409.064 268.338 409.29 268.338 409.545V413.109H267.473Z" fill="white" fill-opacity="0.4"/>
<path d="M314.412 413.109H313.458L316.216 405.599H317.155L319.913 413.109H318.959L316.715 406.787H316.656L314.412 413.109ZM314.764 410.175H318.607V410.982H314.764V410.175ZM320.965 415.222V407.476H321.801V408.371H321.904C321.968 408.273 322.056 408.149 322.168 407.997C322.283 407.843 322.447 407.706 322.66 407.586C322.875 407.464 323.166 407.403 323.532 407.403C324.007 407.403 324.425 407.522 324.787 407.759C325.149 407.996 325.431 408.332 325.634 408.767C325.837 409.202 325.938 409.716 325.938 410.308C325.938 410.904 325.837 411.421 325.634 411.859C325.431 412.294 325.15 412.631 324.79 412.871C324.431 413.108 324.017 413.227 323.547 413.227C323.185 413.227 322.896 413.167 322.678 413.047C322.46 412.925 322.293 412.787 322.176 412.633C322.058 412.476 321.968 412.347 321.904 412.244H321.831V415.222H320.965ZM321.816 410.293C321.816 410.718 321.879 411.094 322.003 411.419C322.128 411.741 322.31 411.994 322.55 412.178C322.789 412.359 323.083 412.449 323.43 412.449C323.792 412.449 324.094 412.354 324.336 412.163C324.58 411.97 324.763 411.711 324.886 411.386C325.01 411.058 325.073 410.694 325.073 410.293C325.073 409.897 325.012 409.54 324.889 409.222C324.77 408.902 324.587 408.649 324.343 408.463C324.101 408.275 323.797 408.18 323.43 408.18C323.078 408.18 322.782 408.27 322.542 408.448C322.303 408.624 322.122 408.871 322 409.189C321.877 409.504 321.816 409.872 321.816 410.293ZM327.259 413.109V407.476H328.095V408.327H328.153C328.256 408.048 328.442 407.822 328.711 407.649C328.98 407.475 329.283 407.388 329.62 407.388C329.684 407.388 329.763 407.39 329.859 407.392C329.954 407.394 330.026 407.398 330.075 407.403V408.283C330.046 408.276 329.978 408.265 329.873 408.25C329.771 408.233 329.662 408.224 329.547 408.224C329.273 408.224 329.029 408.282 328.813 408.397C328.601 408.509 328.432 408.666 328.307 408.866C328.185 409.064 328.124 409.29 328.124 409.545V413.109H327.259Z" fill="white" fill-opacity="0.4"/>
<path d="M372.936 405.599H374.022L376.574 411.833H376.663L379.215 405.599H380.301V413.109H379.45V407.403H379.376L377.029 413.109H376.208L373.861 407.403H373.787V413.109H372.936V405.599ZM384.134 413.227C383.664 413.227 383.25 413.108 382.891 412.871C382.531 412.631 382.25 412.294 382.047 411.859C381.844 411.421 381.743 410.904 381.743 410.308C381.743 409.716 381.844 409.202 382.047 408.767C382.25 408.332 382.532 407.996 382.894 407.759C383.256 407.522 383.674 407.403 384.148 407.403C384.515 407.403 384.805 407.464 385.018 407.586C385.233 407.706 385.397 407.843 385.509 407.997C385.624 408.149 385.713 408.273 385.777 408.371H385.85V407.476H386.716V413.109H385.879V412.244H385.777C385.713 412.347 385.623 412.476 385.505 412.633C385.388 412.787 385.221 412.925 385.003 413.047C384.785 413.167 384.496 413.227 384.134 413.227ZM384.251 412.449C384.598 412.449 384.892 412.359 385.131 412.178C385.371 411.994 385.553 411.741 385.678 411.419C385.802 411.094 385.865 410.718 385.865 410.293C385.865 409.872 385.804 409.504 385.681 409.189C385.559 408.871 385.378 408.624 385.139 408.448C384.899 408.27 384.603 408.18 384.251 408.18C383.884 408.18 383.579 408.275 383.334 408.463C383.092 408.649 382.91 408.902 382.788 409.222C382.668 409.54 382.608 409.897 382.608 410.293C382.608 410.694 382.669 411.058 382.792 411.386C382.916 411.711 383.1 411.97 383.342 412.163C383.586 412.354 383.889 412.449 384.251 412.449ZM388.978 415.222C388.832 415.222 388.701 415.21 388.586 415.185C388.471 415.163 388.392 415.141 388.348 415.119L388.568 414.356C388.778 414.41 388.964 414.43 389.125 414.415C389.286 414.4 389.429 414.328 389.554 414.199C389.681 414.071 389.797 413.865 389.903 413.579L390.064 413.139L387.981 407.476H388.92L390.475 411.965H390.533L392.088 407.476H393.027L390.636 413.931C390.528 414.222 390.395 414.463 390.236 414.653C390.077 414.846 389.893 414.99 389.683 415.082C389.475 415.175 389.24 415.222 388.978 415.222Z" fill="white" fill-opacity="0.4"/>
<path d="M438.613 405.599H439.522V410.968C439.522 411.447 439.434 411.854 439.258 412.189C439.082 412.524 438.834 412.778 438.514 412.952C438.194 413.125 437.816 413.212 437.381 413.212C436.97 413.212 436.604 413.137 436.284 412.988C435.964 412.837 435.712 412.622 435.529 412.343C435.345 412.064 435.254 411.733 435.254 411.349H436.149C436.149 411.562 436.201 411.748 436.306 411.906C436.414 412.063 436.56 412.185 436.746 412.273C436.932 412.361 437.144 412.405 437.381 412.405C437.642 412.405 437.865 412.35 438.048 412.24C438.232 412.13 438.371 411.969 438.466 411.756C438.564 411.541 438.613 411.278 438.613 410.968V405.599ZM444.778 410.806V407.476H445.643V413.109H444.778V412.156H444.719C444.587 412.442 444.382 412.685 444.103 412.886C443.824 413.084 443.472 413.183 443.047 413.183C442.695 413.183 442.382 413.106 442.108 412.952C441.834 412.795 441.619 412.56 441.463 412.248C441.306 411.932 441.228 411.535 441.228 411.056V407.476H442.093V410.997C442.093 411.408 442.208 411.735 442.438 411.98C442.67 412.224 442.966 412.347 443.326 412.347C443.541 412.347 443.759 412.292 443.982 412.182C444.207 412.072 444.395 411.903 444.547 411.675C444.701 411.448 444.778 411.158 444.778 410.806ZM448.094 409.721V413.109H447.229V407.476H448.065V408.356H448.138C448.27 408.07 448.471 407.841 448.739 407.667C449.008 407.491 449.356 407.403 449.781 407.403C450.162 407.403 450.496 407.481 450.782 407.638C451.068 407.792 451.291 408.026 451.45 408.342C451.609 408.655 451.688 409.051 451.688 409.53V413.109H450.823V409.589C450.823 409.146 450.708 408.801 450.478 408.555C450.248 408.305 449.933 408.18 449.532 408.18C449.255 408.18 449.008 408.24 448.791 408.36C448.576 408.48 448.406 408.655 448.281 408.885C448.156 409.114 448.094 409.393 448.094 409.721Z" fill="white" fill-opacity="0.4"/>
<path d="M501.359 405.599H502.268V410.968C502.268 411.447 502.18 411.854 502.004 412.189C501.828 412.524 501.58 412.778 501.26 412.952C500.939 413.125 500.562 413.212 500.127 413.212C499.716 413.212 499.35 413.137 499.03 412.988C498.71 412.837 498.458 412.622 498.275 412.343C498.091 412.064 497.999 411.733 497.999 411.349H498.894C498.894 411.562 498.947 411.748 499.052 411.906C499.16 412.063 499.306 412.185 499.492 412.273C499.678 412.361 499.889 412.405 500.127 412.405C500.388 412.405 500.611 412.35 500.794 412.24C500.977 412.13 501.117 411.969 501.212 411.756C501.31 411.541 501.359 411.278 501.359 410.968V405.599ZM507.524 410.806V407.476H508.389V413.109H507.524V412.156H507.465C507.333 412.442 507.128 412.685 506.849 412.886C506.57 413.084 506.218 413.183 505.793 413.183C505.441 413.183 505.128 413.106 504.854 412.952C504.58 412.795 504.365 412.56 504.208 412.248C504.052 411.932 503.974 411.535 503.974 411.056V407.476H504.839V410.997C504.839 411.408 504.954 411.735 505.184 411.98C505.416 412.224 505.712 412.347 506.071 412.347C506.286 412.347 506.505 412.292 506.728 412.182C506.953 412.072 507.141 411.903 507.293 411.675C507.447 411.448 507.524 411.158 507.524 410.806ZM510.84 405.599V413.109H509.974V405.599H510.84Z" fill="white" fill-opacity="0.4"/>
<mask id="mask0_1_6281" style="mask-type:alpha" maskUnits="userSpaceOnUse" x="108" y="206" width="428" height="211">
<rect x="108.424" y="206.867" width="426.655" height="209.988" fill="black"/>
</mask>
<g mask="url(#mask0_1_6281)">
<path d="M109.948 365.233L135.115 328.236C138.505 323.253 144.254 320.406 150.271 320.73L175.428 322.083L204.646 325.117C209.61 325.632 214.553 323.968 218.194 320.555L254.61 286.426C259.007 282.305 266.169 283.863 268.457 289.438L290.986 344.344C293.396 350.216 298.842 354.286 305.157 354.932L332.835 357.765C339.592 358.456 346.123 355.11 349.509 349.222L364.105 323.837C368.543 316.118 378.136 313.058 386.224 316.782L396.013 321.289C406.122 325.943 417.923 319.925 420.093 309.01L427.25 273.007C428.721 265.605 434.843 260.024 442.35 259.243L472.849 256.07C475.358 255.809 477.778 255 479.94 253.7L522.889 227.866" stroke="#A8C5DA" stroke-width="0.860606" stroke-linecap="round" stroke-dasharray="1.72 3.44"/>
</g>
<mask id="mask1_1_6281" style="mask-type:alpha" maskUnits="userSpaceOnUse" x="108" y="206" width="428" height="211">
<rect x="108.424" y="206.867" width="426.655" height="209.988" fill="black"/>
</mask>
<g mask="url(#mask1_1_6281)">
<mask id="mask2_1_6281" style="mask-type:alpha" maskUnits="userSpaceOnUse" x="109" y="242" width="414" height="175">
<path d="M123.555 323.07L109.948 330.092V416.855H522.889V265.585L498.418 269.659C494.637 270.288 491.174 272.162 488.579 274.983L475.735 288.94C468.768 296.512 456.757 296.32 450.036 288.529L444.725 282.372C436.43 272.757 422.306 270.753 411.665 277.681C404.872 282.103 395.731 279.109 392.87 271.525L384.597 249.59C381.329 240.924 369.452 239.968 364.839 247.999C358.764 258.575 346.761 264.266 334.728 262.277L328.969 261.324C321.33 260.061 313.788 264.053 310.539 271.081L292.944 309.124C289.781 315.963 282.537 319.95 275.066 318.963L256.809 316.55C245.964 315.116 235.163 319.489 228.37 328.065C218.95 339.957 205.506 347.995 190.571 350.663L185.896 351.498C182.03 352.188 178.349 353.677 175.09 355.87C167.543 360.946 157.235 357.677 153.994 349.178L147.531 332.231C143.871 322.637 132.68 318.361 123.555 323.07Z" fill="url(#paint0_radial_1_6281)"/>
</mask>
<g mask="url(#mask2_1_6281)">
<path opacity="0.6" d="M123.555 323.07L109.948 330.092V416.855H522.889V265.585L498.418 269.659C494.637 270.288 491.174 272.162 488.579 274.983L475.735 288.94C468.767 296.512 456.757 296.32 450.036 288.529L444.725 282.372C436.43 272.757 422.306 270.753 411.665 277.681C404.872 282.103 395.731 279.109 392.87 271.525L384.597 249.59C381.329 240.924 369.452 239.968 364.839 247.999C358.764 258.575 346.761 264.266 334.728 262.277L328.969 261.324C321.33 260.061 313.788 264.053 310.538 271.081L292.944 309.124C289.781 315.963 282.537 319.95 275.066 318.963L256.809 316.55C245.964 315.116 235.163 319.489 228.37 328.065C218.95 339.957 205.506 347.995 190.571 350.663L185.896 351.498C182.03 352.188 178.349 353.677 175.09 355.87C167.543 360.946 157.235 357.677 153.994 349.178L147.531 332.231C143.871 322.637 132.68 318.361 123.555 323.07Z" fill="#C6C7F8"/>
</g>
<path d="M109.948 329.674L117.647 325.717C123.114 322.908 125.847 321.503 128.34 321.043C134.677 319.875 141.136 322.344 145.077 327.442C146.628 329.447 147.727 332.317 149.925 338.057L153.98 348.647C157.233 357.139 167.533 360.409 175.088 355.348V355.348C178.349 353.164 182.028 351.681 185.891 350.994L190.616 350.153C205.524 347.501 218.951 339.498 228.377 327.648V327.648C235.168 319.109 245.939 314.757 256.756 316.18L268.614 317.741C274.813 318.557 277.912 318.965 280.701 318.41C284.172 317.718 287.345 315.974 289.789 313.414C291.752 311.357 293.069 308.522 295.702 302.852L310.187 271.661C310.516 270.953 310.681 270.598 310.841 270.286C314.142 263.876 321.089 260.202 328.245 261.083C328.594 261.126 328.98 261.189 329.751 261.316L334.772 262.143C346.784 264.122 358.765 258.449 364.847 247.903V247.903C369.467 239.892 381.32 240.849 384.596 249.497L392.855 271.306C395.727 278.889 404.866 281.885 411.67 277.474V277.474C422.319 270.57 436.428 272.57 444.737 282.163L447.703 285.588C449.865 288.083 450.946 289.331 451.983 290.204C458.23 295.463 467.313 295.609 473.725 290.553C474.79 289.713 475.91 288.501 478.151 286.076L486.176 277.391C488.552 274.819 489.74 273.533 491.126 272.53C492.356 271.639 493.698 270.915 495.117 270.377C496.717 269.77 498.445 269.484 501.899 268.911L522.889 265.431" stroke="url(#paint1_linear_1_6281)" stroke-width="0.860606" stroke-linecap="round"/>
<path d="M109.948 329.674L117.647 325.717C123.114 322.908 125.847 321.503 128.34 321.043C134.677 319.875 141.136 322.344 145.077 327.442C146.628 329.447 147.727 332.317 149.925 338.057L153.98 348.647C157.233 357.139 167.533 360.409 175.088 355.348V355.348C178.349 353.164 182.028 351.681 185.891 350.994L190.616 350.153C205.524 347.501 218.951 339.498 228.377 327.648V327.648C235.168 319.109 245.939 314.757 256.756 316.18L268.614 317.741C274.813 318.557 277.912 318.965 280.701 318.41C284.172 317.718 287.345 315.974 289.789 313.414C291.752 311.357 293.069 308.522 295.702 302.852L310.187 271.661C310.516 270.953 310.681 270.598 310.841 270.286C314.142 263.876 321.089 260.202 328.245 261.083C328.594 261.126 328.98 261.189 329.751 261.316L334.772 262.143C346.784 264.122 358.765 258.449 364.847 247.903V247.903C369.467 239.892 381.32 240.849 384.596 249.497L392.855 271.306C395.727 278.889 404.866 281.885 411.67 277.474V277.474C422.319 270.57 436.428 272.57 444.737 282.163L447.703 285.588C449.865 288.083 450.946 289.331 451.983 290.204C458.23 295.463 467.313 295.609 473.725 290.553C474.79 289.713 475.91 288.501 478.151 286.076L486.176 277.391C488.552 274.819 489.74 273.533 491.126 272.53C492.356 271.639 493.698 270.915 495.117 270.377C496.717 269.77 498.445 269.484 501.899 268.911L522.889 265.431" stroke="#C6C7F8" stroke-width="0.860606" stroke-linecap="round" style="mix-blend-mode:screen"/>
</g>
<defs>
<radialGradient id="paint0_radial_1_6281" cx="0" cy="0" r="1" gradientUnits="userSpaceOnUse" gradientTransform="translate(316.418 262.582) rotate(90) scale(102.838 202.599)">
<stop stop-opacity="0.08"/>
<stop offset="1" stop-opacity="0"/>
</radialGradient>
<linearGradient id="paint1_linear_1_6281" x1="111.895" y1="380.74" x2="522.889" y2="380.74" gradientUnits="userSpaceOnUse">
<stop stop-opacity="0.4"/>
<stop offset="1"/>
</linearGradient>
</defs>
</svg>

